<?xml version="1.0" encoding="UTF-8" standalone="no"?>
<!-- Created with Inkscape (http://www.inkscape.org/) -->

<svg
   xmlns:dc="http://purl.org/dc/elements/1.1/"
   xmlns:cc="http://creativecommons.org/ns#"
   xmlns:rdf="http://www.w3.org/1999/02/22-rdf-syntax-ns#"
   xmlns:svg="http://www.w3.org/2000/svg"
   xmlns="http://www.w3.org/2000/svg"
   xmlns:sodipodi="http://sodipodi.sourceforge.net/DTD/sodipodi-0.dtd"
   xmlns:inkscape="http://www.inkscape.org/namespaces/inkscape"
   width="210mm"
   height="297mm"
   viewBox="0 0 744.09448819 1052.3622047"
   id="svg2"
   version="1.1"
   inkscape:version="0.91 r13725"
   sodipodi:docname="figure1.svg">
  <defs
     id="defs4">
    <clipPath
       id="clipPath3354"
       clipPathUnits="userSpaceOnUse">
      <path
         inkscape:connector-curvature="0"
         id="path3356"
         d="m 180,108.66182 1116,0 0,434.6473 -1116,0 0,-434.6473 z" />
    </clipPath>
    <clipPath
       id="clipPath3364"
       clipPathUnits="userSpaceOnUse">
      <path
         inkscape:connector-curvature="0"
         id="path3366"
         d="m 180,108.66182 1116,0 0,434.6473 -1116,0 0,-434.6473 z" />
    </clipPath>
    <clipPath
       id="clipPath3374"
       clipPathUnits="userSpaceOnUse">
      <path
         inkscape:connector-curvature="0"
         id="path3376"
         d="m 180,108.66182 1116,0 0,434.6473 -1116,0 0,-434.6473 z" />
    </clipPath>
    <clipPath
       id="clipPath3384"
       clipPathUnits="userSpaceOnUse">
      <path
         inkscape:connector-curvature="0"
         id="path3386"
         d="m 180,108.66182 1116,0 0,434.6473 -1116,0 0,-434.6473 z" />
    </clipPath>
    <clipPath
       id="clipPath3394"
       clipPathUnits="userSpaceOnUse">
      <path
         inkscape:connector-curvature="0"
         id="path3396"
         d="m 180,108.66182 1116,0 0,434.6473 -1116,0 0,-434.6473 z" />
    </clipPath>
    <clipPath
       id="clipPath3542"
       clipPathUnits="userSpaceOnUse">
      <path
         inkscape:connector-curvature="0"
         id="path3544"
         d="m 180,108.66182 1116,0 0,434.6473 -1116,0 0,-434.6473 z" />
    </clipPath>
    <clipPath
       id="clipPath3552"
       clipPathUnits="userSpaceOnUse">
      <path
         inkscape:connector-curvature="0"
         id="path3554"
         d="m 180,108.66182 1116,0 0,434.6473 -1116,0 0,-434.6473 z" />
    </clipPath>
    <clipPath
       id="clipPath3562"
       clipPathUnits="userSpaceOnUse">
      <path
         inkscape:connector-curvature="0"
         id="path3564"
         d="m 180,108.66182 1116,0 0,434.6473 -1116,0 0,-434.6473 z" />
    </clipPath>
    <clipPath
       id="clipPath3572"
       clipPathUnits="userSpaceOnUse">
      <path
         inkscape:connector-curvature="0"
         id="path3574"
         d="m 180,108.66182 1116,0 0,434.6473 -1116,0 0,-434.6473 z" />
    </clipPath>
    <clipPath
       id="clipPath3582"
       clipPathUnits="userSpaceOnUse">
      <path
         inkscape:connector-curvature="0"
         id="path3584"
         d="m 180,108.66182 1116,0 0,434.6473 -1116,0 0,-434.6473 z" />
    </clipPath>
    <clipPath
       id="clipPath3730"
       clipPathUnits="userSpaceOnUse">
      <path
         inkscape:connector-curvature="0"
         id="path3732"
         d="m 100.8,108.66182 1339.2,0 0,434.6473 -1339.2,0 0,-434.6473 z" />
    </clipPath>
    <clipPath
       id="clipPath3740"
       clipPathUnits="userSpaceOnUse">
      <path
         inkscape:connector-curvature="0"
         id="path3742"
         d="m 100.8,108.66182 1339.2,0 0,434.6473 -1339.2,0 0,-434.6473 z" />
    </clipPath>
    <clipPath
       id="clipPath3750"
       clipPathUnits="userSpaceOnUse">
      <path
         inkscape:connector-curvature="0"
         id="path3752"
         d="m 100.8,108.66182 1339.2,0 0,434.6473 -1339.2,0 0,-434.6473 z" />
    </clipPath>
    <clipPath
       id="clipPath3760"
       clipPathUnits="userSpaceOnUse">
      <path
         inkscape:connector-curvature="0"
         id="path3762"
         d="m 100.8,108.66182 1339.2,0 0,434.6473 -1339.2,0 0,-434.6473 z" />
    </clipPath>
    <clipPath
       id="clipPath3770"
       clipPathUnits="userSpaceOnUse">
      <path
         inkscape:connector-curvature="0"
         id="path3772"
         d="m 100.8,108.66182 1339.2,0 0,434.6473 -1339.2,0 0,-434.6473 z" />
    </clipPath>
    <clipPath
       id="clipPath3918"
       clipPathUnits="userSpaceOnUse">
      <path
         inkscape:connector-curvature="0"
         id="path3920"
         d="m 100.8,108.66182 1339.2,0 0,434.6473 -1339.2,0 0,-434.6473 z" />
    </clipPath>
    <clipPath
       id="clipPath3928"
       clipPathUnits="userSpaceOnUse">
      <path
         inkscape:connector-curvature="0"
         id="path3930"
         d="m 100.8,108.66182 1339.2,0 0,434.6473 -1339.2,0 0,-434.6473 z" />
    </clipPath>
    <clipPath
       id="clipPath3938"
       clipPathUnits="userSpaceOnUse">
      <path
         inkscape:connector-curvature="0"
         id="path3940"
         d="m 100.8,108.66182 1339.2,0 0,434.6473 -1339.2,0 0,-434.6473 z" />
    </clipPath>
    <clipPath
       id="clipPath3948"
       clipPathUnits="userSpaceOnUse">
      <path
         inkscape:connector-curvature="0"
         id="path3950"
         d="m 100.8,108.66182 1339.2,0 0,434.6473 -1339.2,0 0,-434.6473 z" />
    </clipPath>
    <clipPath
       id="clipPath3958"
       clipPathUnits="userSpaceOnUse">
      <path
         inkscape:connector-curvature="0"
         id="path3960"
         d="m 100.8,108.66182 1339.2,0 0,434.6473 -1339.2,0 0,-434.6473 z" />
    </clipPath>
    <clipPath
       id="clipPath4112"
       clipPathUnits="userSpaceOnUse">
      <path
         inkscape:connector-curvature="0"
         id="path4114"
         d="m 100.8,108.66182 1339.2,0 0,434.6473 -1339.2,0 0,-434.6473 z" />
    </clipPath>
    <clipPath
       id="clipPath4122"
       clipPathUnits="userSpaceOnUse">
      <path
         inkscape:connector-curvature="0"
         id="path4124"
         d="m 100.8,108.66182 1339.2,0 0,434.6473 -1339.2,0 0,-434.6473 z" />
    </clipPath>
    <clipPath
       id="clipPath4132"
       clipPathUnits="userSpaceOnUse">
      <path
         inkscape:connector-curvature="0"
         id="path4134"
         d="m 100.8,108.66182 1339.2,0 0,434.6473 -1339.2,0 0,-434.6473 z" />
    </clipPath>
    <clipPath
       id="clipPath4142"
       clipPathUnits="userSpaceOnUse">
      <path
         inkscape:connector-curvature="0"
         id="path4144"
         d="m 100.8,108.66182 1339.2,0 0,434.6473 -1339.2,0 0,-434.6473 z" />
    </clipPath>
    <clipPath
       id="clipPath4152"
       clipPathUnits="userSpaceOnUse">
      <path
         inkscape:connector-curvature="0"
         id="path4154"
         d="m 100.8,108.66182 1339.2,0 0,434.6473 -1339.2,0 0,-434.6473 z" />
    </clipPath>
    <clipPath
       id="clipPath4306"
       clipPathUnits="userSpaceOnUse">
      <path
         inkscape:connector-curvature="0"
         id="path4308"
         d="m 100.8,108.66182 1339.2,0 0,434.6473 -1339.2,0 0,-434.6473 z" />
    </clipPath>
    <clipPath
       id="clipPath4316"
       clipPathUnits="userSpaceOnUse">
      <path
         inkscape:connector-curvature="0"
         id="path4318"
         d="m 100.8,108.66182 1339.2,0 0,434.6473 -1339.2,0 0,-434.6473 z" />
    </clipPath>
    <clipPath
       id="clipPath4326"
       clipPathUnits="userSpaceOnUse">
      <path
         inkscape:connector-curvature="0"
         id="path4328"
         d="m 100.8,108.66182 1339.2,0 0,434.6473 -1339.2,0 0,-434.6473 z" />
    </clipPath>
    <clipPath
       id="clipPath4336"
       clipPathUnits="userSpaceOnUse">
      <path
         inkscape:connector-curvature="0"
         id="path4338"
         d="m 100.8,108.66182 1339.2,0 0,434.6473 -1339.2,0 0,-434.6473 z" />
    </clipPath>
    <clipPath
       id="clipPath4346"
       clipPathUnits="userSpaceOnUse">
      <path
         inkscape:connector-curvature="0"
         id="path4348"
         d="m 100.8,108.66182 1339.2,0 0,434.6473 -1339.2,0 0,-434.6473 z" />
    </clipPath>
    <clipPath
       id="clipPath4488"
       clipPathUnits="userSpaceOnUse">
      <path
         inkscape:connector-curvature="0"
         id="path4490"
         d="m 100.8,108.66182 1339.2,0 0,434.6473 -1339.2,0 0,-434.6473 z" />
    </clipPath>
    <clipPath
       id="clipPath4498"
       clipPathUnits="userSpaceOnUse">
      <path
         inkscape:connector-curvature="0"
         id="path4500"
         d="m 100.8,108.66182 1339.2,0 0,434.6473 -1339.2,0 0,-434.6473 z" />
    </clipPath>
    <clipPath
       id="clipPath4508"
       clipPathUnits="userSpaceOnUse">
      <path
         inkscape:connector-curvature="0"
         id="path4510"
         d="m 100.8,108.66182 1339.2,0 0,434.6473 -1339.2,0 0,-434.6473 z" />
    </clipPath>
    <clipPath
       id="clipPath4518"
       clipPathUnits="userSpaceOnUse">
      <path
         inkscape:connector-curvature="0"
         id="path4520"
         d="m 100.8,108.66182 1339.2,0 0,434.6473 -1339.2,0 0,-434.6473 z" />
    </clipPath>
    <clipPath
       id="clipPath4658"
       clipPathUnits="userSpaceOnUse">
      <path
         inkscape:connector-curvature="0"
         id="path4660"
         d="m 100.8,108.66182 1339.2,0 0,434.6473 -1339.2,0 0,-434.6473 z" />
    </clipPath>
    <clipPath
       id="clipPath4668"
       clipPathUnits="userSpaceOnUse">
      <path
         inkscape:connector-curvature="0"
         id="path4670"
         d="m 100.8,108.66182 1339.2,0 0,434.6473 -1339.2,0 0,-434.6473 z" />
    </clipPath>
    <clipPath
       id="clipPath4678"
       clipPathUnits="userSpaceOnUse">
      <path
         inkscape:connector-curvature="0"
         id="path4680"
         d="m 100.8,108.66182 1339.2,0 0,434.6473 -1339.2,0 0,-434.6473 z" />
    </clipPath>
    <clipPath
       id="clipPath4688"
       clipPathUnits="userSpaceOnUse">
      <path
         inkscape:connector-curvature="0"
         id="path4690"
         d="m 100.8,108.66182 1339.2,0 0,434.6473 -1339.2,0 0,-434.6473 z" />
    </clipPath>
    <clipPath
       id="clipPath4828"
       clipPathUnits="userSpaceOnUse">
      <path
         inkscape:connector-curvature="0"
         id="path4830"
         d="m 100.8,108.66182 1339.2,0 0,434.6473 -1339.2,0 0,-434.6473 z" />
    </clipPath>
    <clipPath
       id="clipPath4838"
       clipPathUnits="userSpaceOnUse">
      <path
         inkscape:connector-curvature="0"
         id="path4840"
         d="m 100.8,108.66182 1339.2,0 0,434.6473 -1339.2,0 0,-434.6473 z" />
    </clipPath>
    <clipPath
       id="clipPath4848"
       clipPathUnits="userSpaceOnUse">
      <path
         inkscape:connector-curvature="0"
         id="path4850"
         d="m 100.8,108.66182 1339.2,0 0,434.6473 -1339.2,0 0,-434.6473 z" />
    </clipPath>
    <clipPath
       id="clipPath4858"
       clipPathUnits="userSpaceOnUse">
      <path
         inkscape:connector-curvature="0"
         id="path4860"
         d="m 100.8,108.66182 1339.2,0 0,434.6473 -1339.2,0 0,-434.6473 z" />
    </clipPath>
    <clipPath
       id="clipPath4998"
       clipPathUnits="userSpaceOnUse">
      <path
         inkscape:connector-curvature="0"
         id="path5000"
         d="m 100.8,108.66182 1339.2,0 0,434.6473 -1339.2,0 0,-434.6473 z" />
    </clipPath>
    <clipPath
       id="clipPath5008"
       clipPathUnits="userSpaceOnUse">
      <path
         inkscape:connector-curvature="0"
         id="path5010"
         d="m 100.8,108.66182 1339.2,0 0,434.6473 -1339.2,0 0,-434.6473 z" />
    </clipPath>
    <clipPath
       id="clipPath5018"
       clipPathUnits="userSpaceOnUse">
      <path
         inkscape:connector-curvature="0"
         id="path5020"
         d="m 100.8,108.66182 1339.2,0 0,434.6473 -1339.2,0 0,-434.6473 z" />
    </clipPath>
    <clipPath
       id="clipPath5028"
       clipPathUnits="userSpaceOnUse">
      <path
         inkscape:connector-curvature="0"
         id="path5030"
         d="m 100.8,108.66182 1339.2,0 0,434.6473 -1339.2,0 0,-434.6473 z" />
    </clipPath>
    <clipPath
       id="clipPath5168"
       clipPathUnits="userSpaceOnUse">
      <path
         inkscape:connector-curvature="0"
         id="path5170"
         d="m 100.8,108.66182 1339.2,0 0,434.6473 -1339.2,0 0,-434.6473 z" />
    </clipPath>
    <clipPath
       id="clipPath5178"
       clipPathUnits="userSpaceOnUse">
      <path
         inkscape:connector-curvature="0"
         id="path5180"
         d="m 100.8,108.66182 1339.2,0 0,434.6473 -1339.2,0 0,-434.6473 z" />
    </clipPath>
    <clipPath
       id="clipPath5188"
       clipPathUnits="userSpaceOnUse">
      <path
         inkscape:connector-curvature="0"
         id="path5190"
         d="m 100.8,108.66182 1339.2,0 0,434.6473 -1339.2,0 0,-434.6473 z" />
    </clipPath>
    <clipPath
       id="clipPath5198"
       clipPathUnits="userSpaceOnUse">
      <path
         inkscape:connector-curvature="0"
         id="path5200"
         d="m 100.8,108.66182 1339.2,0 0,434.6473 -1339.2,0 0,-434.6473 z" />
    </clipPath>
    <clipPath
       id="clipPath5338"
       clipPathUnits="userSpaceOnUse">
      <path
         inkscape:connector-curvature="0"
         id="path5340"
         d="m 100.8,108.66182 1339.2,0 0,434.6473 -1339.2,0 0,-434.6473 z" />
    </clipPath>
    <clipPath
       id="clipPath5348"
       clipPathUnits="userSpaceOnUse">
      <path
         inkscape:connector-curvature="0"
         id="path5350"
         d="m 100.8,108.66182 1339.2,0 0,434.6473 -1339.2,0 0,-434.6473 z" />
    </clipPath>
    <clipPath
       id="clipPath5358"
       clipPathUnits="userSpaceOnUse">
      <path
         inkscape:connector-curvature="0"
         id="path5360"
         d="m 100.8,108.66182 1339.2,0 0,434.6473 -1339.2,0 0,-434.6473 z" />
    </clipPath>
    <clipPath
       id="clipPath5368"
       clipPathUnits="userSpaceOnUse">
      <path
         inkscape:connector-curvature="0"
         id="path5370"
         d="m 100.8,108.66182 1339.2,0 0,434.6473 -1339.2,0 0,-434.6473 z" />
    </clipPath>
    <clipPath
       id="clipPath5508"
       clipPathUnits="userSpaceOnUse">
      <path
         inkscape:connector-curvature="0"
         id="path5510"
         d="m 100.8,108.66182 1339.2,0 0,434.6473 -1339.2,0 0,-434.6473 z" />
    </clipPath>
    <clipPath
       id="clipPath5518"
       clipPathUnits="userSpaceOnUse">
      <path
         inkscape:connector-curvature="0"
         id="path5520"
         d="m 100.8,108.66182 1339.2,0 0,434.6473 -1339.2,0 0,-434.6473 z" />
    </clipPath>
    <clipPath
       id="clipPath5528"
       clipPathUnits="userSpaceOnUse">
      <path
         inkscape:connector-curvature="0"
         id="path5530"
         d="m 100.8,108.66182 1339.2,0 0,434.6473 -1339.2,0 0,-434.6473 z" />
    </clipPath>
    <clipPath
       id="clipPath5538"
       clipPathUnits="userSpaceOnUse">
      <path
         inkscape:connector-curvature="0"
         id="path5540"
         d="m 100.8,108.66182 1339.2,0 0,434.6473 -1339.2,0 0,-434.6473 z" />
    </clipPath>
    <clipPath
       id="clipPath5666"
       clipPathUnits="userSpaceOnUse">
      <path
         inkscape:connector-curvature="0"
         id="path5668"
         d="m 100.8,108.66182 1339.2,0 0,434.6473 -1339.2,0 0,-434.6473 z" />
    </clipPath>
    <clipPath
       id="clipPath5676"
       clipPathUnits="userSpaceOnUse">
      <path
         inkscape:connector-curvature="0"
         id="path5678"
         d="m 100.8,108.66182 1339.2,0 0,434.6473 -1339.2,0 0,-434.6473 z" />
    </clipPath>
    <clipPath
       id="clipPath5686"
       clipPathUnits="userSpaceOnUse">
      <path
         inkscape:connector-curvature="0"
         id="path5688"
         d="m 100.8,108.66182 1339.2,0 0,434.6473 -1339.2,0 0,-434.6473 z" />
    </clipPath>
    <clipPath
       id="clipPath5696"
       clipPathUnits="userSpaceOnUse">
      <path
         inkscape:connector-curvature="0"
         id="path5698"
         d="m 100.8,108.66182 1339.2,0 0,434.6473 -1339.2,0 0,-434.6473 z" />
    </clipPath>
    <clipPath
       id="clipPath6230"
       clipPathUnits="userSpaceOnUse">
      <path
         inkscape:connector-curvature="0"
         id="path6232"
         d="m 100.8,108.66182 1339.2,0 0,434.6473 -1339.2,0 0,-434.6473 z" />
    </clipPath>
    <clipPath
       id="clipPath6240"
       clipPathUnits="userSpaceOnUse">
      <path
         inkscape:connector-curvature="0"
         id="path6242"
         d="m 100.8,108.66182 1339.2,0 0,434.6473 -1339.2,0 0,-434.6473 z" />
    </clipPath>
    <clipPath
       id="clipPath6250"
       clipPathUnits="userSpaceOnUse">
      <path
         inkscape:connector-curvature="0"
         id="path6252"
         d="m 100.8,108.66182 1339.2,0 0,434.6473 -1339.2,0 0,-434.6473 z" />
    </clipPath>
    <clipPath
       id="clipPath6260"
       clipPathUnits="userSpaceOnUse">
      <path
         inkscape:connector-curvature="0"
         id="path6262"
         d="m 100.8,108.66182 1339.2,0 0,434.6473 -1339.2,0 0,-434.6473 z" />
    </clipPath>
    <clipPath
       id="clipPath6388"
       clipPathUnits="userSpaceOnUse">
      <path
         inkscape:connector-curvature="0"
         id="path6390"
         d="m 100.8,108.66182 1339.2,0 0,434.6473 -1339.2,0 0,-434.6473 z" />
    </clipPath>
    <clipPath
       id="clipPath6398"
       clipPathUnits="userSpaceOnUse">
      <path
         inkscape:connector-curvature="0"
         id="path6400"
         d="m 100.8,108.66182 1339.2,0 0,434.6473 -1339.2,0 0,-434.6473 z" />
    </clipPath>
    <clipPath
       id="clipPath6408"
       clipPathUnits="userSpaceOnUse">
      <path
         inkscape:connector-curvature="0"
         id="path6410"
         d="m 100.8,108.66182 1339.2,0 0,434.6473 -1339.2,0 0,-434.6473 z" />
    </clipPath>
    <clipPath
       id="clipPath6418"
       clipPathUnits="userSpaceOnUse">
      <path
         inkscape:connector-curvature="0"
         id="path6420"
         d="m 100.8,108.66182 1339.2,0 0,434.6473 -1339.2,0 0,-434.6473 z" />
    </clipPath>
    <clipPath
       id="clipPath6546"
       clipPathUnits="userSpaceOnUse">
      <path
         inkscape:connector-curvature="0"
         id="path6548"
         d="m 100.8,108.66182 1339.2,0 0,434.6473 -1339.2,0 0,-434.6473 z" />
    </clipPath>
    <clipPath
       id="clipPath6556"
       clipPathUnits="userSpaceOnUse">
      <path
         inkscape:connector-curvature="0"
         id="path6558"
         d="m 100.8,108.66182 1339.2,0 0,434.6473 -1339.2,0 0,-434.6473 z" />
    </clipPath>
    <clipPath
       id="clipPath6566"
       clipPathUnits="userSpaceOnUse">
      <path
         inkscape:connector-curvature="0"
         id="path6568"
         d="m 100.8,108.66182 1339.2,0 0,434.6473 -1339.2,0 0,-434.6473 z" />
    </clipPath>
    <clipPath
       id="clipPath6576"
       clipPathUnits="userSpaceOnUse">
      <path
         inkscape:connector-curvature="0"
         id="path6578"
         d="m 100.8,108.66182 1339.2,0 0,434.6473 -1339.2,0 0,-434.6473 z" />
    </clipPath>
    <clipPath
       id="clipPath6832"
       clipPathUnits="userSpaceOnUse">
      <path
         inkscape:connector-curvature="0"
         id="path6834"
         d="m 100.8,108.66182 1339.2,0 0,434.6473 -1339.2,0 0,-434.6473 z" />
    </clipPath>
    <clipPath
       id="clipPath6842"
       clipPathUnits="userSpaceOnUse">
      <path
         inkscape:connector-curvature="0"
         id="path6844"
         d="m 100.8,108.66182 1339.2,0 0,434.6473 -1339.2,0 0,-434.6473 z" />
    </clipPath>
    <clipPath
       id="clipPath6852"
       clipPathUnits="userSpaceOnUse">
      <path
         inkscape:connector-curvature="0"
         id="path6854"
         d="m 100.8,108.66182 1339.2,0 0,434.6473 -1339.2,0 0,-434.6473 z" />
    </clipPath>
    <clipPath
       id="clipPath6862"
       clipPathUnits="userSpaceOnUse">
      <path
         inkscape:connector-curvature="0"
         id="path6864"
         d="m 100.8,108.66182 1339.2,0 0,434.6473 -1339.2,0 0,-434.6473 z" />
    </clipPath>
    <clipPath
       id="clipPath6990"
       clipPathUnits="userSpaceOnUse">
      <path
         inkscape:connector-curvature="0"
         id="path6992"
         d="m 100.8,108.66182 1339.2,0 0,434.6473 -1339.2,0 0,-434.6473 z" />
    </clipPath>
    <clipPath
       id="clipPath7000"
       clipPathUnits="userSpaceOnUse">
      <path
         inkscape:connector-curvature="0"
         id="path7002"
         d="m 100.8,108.66182 1339.2,0 0,434.6473 -1339.2,0 0,-434.6473 z" />
    </clipPath>
    <clipPath
       id="clipPath7010"
       clipPathUnits="userSpaceOnUse">
      <path
         inkscape:connector-curvature="0"
         id="path7012"
         d="m 100.8,108.66182 1339.2,0 0,434.6473 -1339.2,0 0,-434.6473 z" />
    </clipPath>
    <clipPath
       id="clipPath7020"
       clipPathUnits="userSpaceOnUse">
      <path
         inkscape:connector-curvature="0"
         id="path7022"
         d="m 100.8,108.66182 1339.2,0 0,434.6473 -1339.2,0 0,-434.6473 z" />
    </clipPath>
    <clipPath
       id="clipPath7148"
       clipPathUnits="userSpaceOnUse">
      <path
         inkscape:connector-curvature="0"
         id="path7150"
         d="m 100.8,108.66182 1339.2,0 0,434.6473 -1339.2,0 0,-434.6473 z" />
    </clipPath>
    <clipPath
       id="clipPath7158"
       clipPathUnits="userSpaceOnUse">
      <path
         inkscape:connector-curvature="0"
         id="path7160"
         d="m 100.8,108.66182 1339.2,0 0,434.6473 -1339.2,0 0,-434.6473 z" />
    </clipPath>
    <clipPath
       id="clipPath7168"
       clipPathUnits="userSpaceOnUse">
      <path
         inkscape:connector-curvature="0"
         id="path7170"
         d="m 100.8,108.66182 1339.2,0 0,434.6473 -1339.2,0 0,-434.6473 z" />
    </clipPath>
    <clipPath
       id="clipPath7178"
       clipPathUnits="userSpaceOnUse">
      <path
         inkscape:connector-curvature="0"
         id="path7180"
         d="m 100.8,108.66182 1339.2,0 0,434.6473 -1339.2,0 0,-434.6473 z" />
    </clipPath>
    <clipPath
       id="clipPath7560"
       clipPathUnits="userSpaceOnUse">
      <path
         inkscape:connector-curvature="0"
         id="path7562"
         d="m 100.8,108.66182 1339.2,0 0,434.6473 -1339.2,0 0,-434.6473 z" />
    </clipPath>
    <clipPath
       id="clipPath7570"
       clipPathUnits="userSpaceOnUse">
      <path
         inkscape:connector-curvature="0"
         id="path7572"
         d="m 100.8,108.66182 1339.2,0 0,434.6473 -1339.2,0 0,-434.6473 z" />
    </clipPath>
    <clipPath
       id="clipPath7580"
       clipPathUnits="userSpaceOnUse">
      <path
         inkscape:connector-curvature="0"
         id="path7582"
         d="m 100.8,108.66182 1339.2,0 0,434.6473 -1339.2,0 0,-434.6473 z" />
    </clipPath>
    <clipPath
       id="clipPath7590"
       clipPathUnits="userSpaceOnUse">
      <path
         inkscape:connector-curvature="0"
         id="path7592"
         d="m 100.8,108.66182 1339.2,0 0,434.6473 -1339.2,0 0,-434.6473 z" />
    </clipPath>
  </defs>
  <sodipodi:namedview
     id="base"
     pagecolor="#ffffff"
     bordercolor="#666666"
     borderopacity="1.0"
     inkscape:pageopacity="0.0"
     inkscape:pageshadow="2"
     inkscape:zoom="1.2318359"
     inkscape:cx="435.09807"
     inkscape:cy="685.90008"
     inkscape:document-units="px"
     inkscape:current-layer="layer1"
     showgrid="false"
     inkscape:window-width="1920"
     inkscape:window-height="1053"
     inkscape:window-x="1911"
     inkscape:window-y="-9"
     inkscape:window-maximized="1" />
  <metadata
     id="metadata7">
    <rdf:RDF>
      <cc:Work
         rdf:about="">
        <dc:format>image/svg+xml</dc:format>
        <dc:type
           rdf:resource="http://purl.org/dc/dcmitype/StillImage" />
        <dc:title></dc:title>
      </cc:Work>
    </rdf:RDF>
  </metadata>
  <g
     inkscape:label="Layer 1"
     inkscape:groupmode="layer"
     id="layer1">
    <g
       id="g7700">
      <g
         id="g7550"
         inkscape:label="lncrnas"
         transform="matrix(0.34143064,0,0,-0.34143064,107.10086,683.65451)">
        <path
           d="m 0,0 1440,0 0,603.6768 -1440,0 L 0,0 Z"
           style="fill:#ffffff;fill-opacity:1;fill-rule:nonzero;stroke:none"
           id="path7552"
           inkscape:connector-curvature="0" />
        <path
           d="m 100.8,108.66182 1339.2,0 0,434.6473 -1339.2,0 0,-434.6473 z"
           style="fill:#ffffff;fill-opacity:1;fill-rule:nonzero;stroke:none"
           id="path7554"
           inkscape:connector-curvature="0" />
        <g
           id="g7556">
          <g
             id="g7558"
             clip-path="url(#clipPath7560)">
            <path
               d="m 286.16467,125.41862 -35.92934,0 -3.99271,1.82984 -4.57691,1.82984 -5.16603,1.82985 -5.73609,1.82984 -6.2601,1.82984 -6.71021,1.82985 -7.06058,1.82984 -7.29008,1.82984 -7.38489,1.82985 -7.34008,1.82984 -7.16024,1.82984 -6.85873,1.82985 -6.4558,1.82984 -5.9757,1.82984 -5.44333,1.82985 -4.8808,1.82984 -4.30472,1.82984 -3.72454,1.82985 -3.14221,1.82984 -2.55338,1.82984 -1.94987,1.82985 -1.32274,1.82984 -0.66559,1.82985 0.0227,1.82984 0.73609,1.82984 1.46133,1.82985 2.17843,1.82984 2.86283,1.82984 3.48787,1.82985 4.02771,1.82984 4.46004,1.82984 4.76837,1.82985 4.94381,1.82984 4.98609,1.82984 4.90387,1.82985 4.71415,1.82984 4.44102,1.82984 4.1134,1.82985 3.76241,1.82984 3.41831,1.82984 3.10754,1.82985 2.85032,1.82984 2.65903,1.82984 2.53773,1.82985 2.48272,1.82984 2.48398,1.82985 2.52731,1.82984 2.59635,1.82984 2.67467,1.82985 2.74723,1.82984 2.80138,1.82984 2.8274,1.82985 2.81864,1.82984 2.7716,1.82984 2.68581,1.82985 2.56375,1.82984 2.41057,1.82984 2.23364,1.82985 2.04198,1.82984 1.8453,1.82984 1.65311,1.82985 1.47381,1.82984 1.3139,1.82984 1.17767,1.82985 1.06699,1.82984 0.9816,1.82984 0.91937,1.82985 0.87689,1.82984 0.84997,1.82985 0.83407,1.82984 0.82479,1.82984 0.81813,1.82985 0.81089,1.82984 0.80064,1.82984 0.78594,1.82985 0.76603,1.82984 0.74081,1.82984 0.71047,1.82985 0.67523,1.82984 0.63519,1.82984 0.59025,1.82985 0.54012,1.82984 0.48455,1.82984 0.4234,1.82985 0.35696,1.82984 0.28602,1.82984 0.21202,1.82985 0.13693,1.82984 0.0634,1.82985 -0.006,1.82984 -0.0667,1.82984 -0.11666,1.82985 -0.15247,1.82984 -0.17179,1.82984 -0.17331,1.82985 -0.15707,1.82984 -0.1246,1.82984 -0.079,1.82985 -0.0244,1.82984 4.45414,0 0,0 -0.0244,-1.82984 -0.079,-1.82985 -0.12459,-1.82984 -0.15707,-1.82984 -0.17331,-1.82985 -0.17179,-1.82984 -0.15247,-1.82984 -0.11666,-1.82985 -0.0667,-1.82984 -0.006,-1.82984 0.0634,-1.82985 0.13694,-1.82984 0.21202,-1.82985 0.28602,-1.82984 0.35696,-1.82984 0.4234,-1.82985 0.48454,-1.82984 0.54013,-1.82984 0.59025,-1.82985 0.63519,-1.82984 0.67523,-1.82984 0.71047,-1.82985 0.74081,-1.82984 0.76603,-1.82984 0.78594,-1.82985 0.80064,-1.82984 0.81089,-1.82984 0.81813,-1.82985 0.82479,-1.82984 0.83407,-1.82984 0.84997,-1.82985 0.87689,-1.82984 0.91937,-1.82985 0.98159,-1.82984 1.067,-1.82984 1.17767,-1.82985 1.3139,-1.82984 1.47381,-1.82984 1.65311,-1.82985 1.8453,-1.82984 2.04198,-1.82984 2.23364,-1.82985 2.41057,-1.82984 2.56375,-1.82984 2.68581,-1.82985 2.7716,-1.82984 2.81864,-1.82984 2.8274,-1.82985 2.80138,-1.82984 2.74723,-1.82984 2.67467,-1.82985 2.59635,-1.82984 2.52731,-1.82984 2.48398,-1.82985 2.48271,-1.82984 2.53774,-1.82985 2.65903,-1.82984 2.85032,-1.82984 3.10754,-1.82985 3.41831,-1.82984 3.76241,-1.82984 4.1134,-1.82985 4.44102,-1.82984 4.71415,-1.82984 4.90387,-1.82985 4.98609,-1.82984 4.94381,-1.82984 4.76837,-1.82985 4.46004,-1.82984 4.02771,-1.82984 3.48787,-1.82985 2.86282,-1.82984 2.17844,-1.82984 1.46133,-1.82985 0.73609,-1.82984 0.0227,-1.82984 -0.66559,-1.82985 -1.32274,-1.82984 -1.94987,-1.82985 -2.55339,-1.82984 -3.1422,-1.82984 -3.72454,-1.82985 -4.30472,-1.82984 -4.8808,-1.82984 -5.44333,-1.82985 -5.9757,-1.82984 -6.4558,-1.82984 -6.85873,-1.82985 -7.16024,-1.82984 -7.34008,-1.82984 -7.38489,-1.82985 -7.29008,-1.82984 -7.06058,-1.82984 -6.71021,-1.82985 -6.2601,-1.82984 -5.73609,-1.82984 -5.16603,-1.82985 -4.57691,-1.82984 -3.99271,-1.82984 z"
               style="fill:#008000;fill-opacity:1;fill-rule:nonzero;stroke:#000000;stroke-width:1.5;stroke-linecap:butt;stroke-linejoin:round;stroke-miterlimit:10;stroke-dasharray:none;stroke-opacity:1"
               id="path7564"
               inkscape:connector-curvature="0" />
          </g>
        </g>
        <g
           id="g7566">
          <g
             id="g7568"
             clip-path="url(#clipPath7570)">
            <path
               d="m 696.41585,117.18432 -186.8317,0 -16.0535,0.58222 -12.47322,0.58223 -8.19453,0.58222 -3.7829,0.58222 0.30583,0.58222 3.74323,0.58223 6.33336,0.58222 7.9963,0.58222 8.75132,0.58223 8.72539,0.58222 8.16043,0.58222 7.37,0.58222 6.64493,0.58223 6.16094,0.58222 5.94266,0.58222 5.89706,0.58223 5.88365,0.58222 5.77398,0.58222 5.48141,0.58223 4.97572,0.58222 4.29465,0.58222 3.53956,0.58222 2.8394,0.58223 2.29612,0.58222 1.94393,0.58222 1.74754,0.58223 1.6347,0.58222 1.53736,0.58222 1.41647,0.58222 1.26461,0.58223 1.0971,0.58222 0.94119,0.58222 0.82534,0.58223 0.76586,0.58222 0.75459,0.58222 0.75596,0.58222 0.72139,0.58223 0.6172,0.58222 0.44894,0.58222 0.26319,0.58223 0.12379,0.58222 0.078,0.58222 0.13517,0.58223 0.26753,0.58222 0.42737,0.58222 0.56461,0.58222 0.63839,0.58223 0.62567,0.58222 0.52996,0.58222 0.38411,0.58223 0.23962,0.58222 0.14348,0.58222 0.11637,0.58222 0.14637,0.58223 0.20086,0.58222 0.24651,0.58222 0.26353,0.58223 0.24797,0.58222 0.20545,0.58222 0.14413,0.58222 0.0712,0.58223 -0.006,0.58222 -0.0788,0.58222 -0.13272,0.58223 -0.15296,0.58222 -0.13048,0.58222 -0.0708,0.58223 0.004,0.58222 0.0637,0.58222 0.086,0.58222 0.0679,0.58223 0.0252,0.58222 -0.0175,0.58222 -0.0405,0.58223 -0.0365,0.58222 -0.009,0.58222 0.0306,0.58222 0.0715,0.58223 0.10278,0.58222 0.11754,0.58222 0.11398,0.58223 0.0959,0.58222 0.0707,0.58222 0.0458,0.58223 0.0262,0.58222 0.0133,0.58222 0.006,0.58222 0.002,0.58223 -2.1e-4,0.58222 -0.003,0.58222 -0.007,0.58223 -0.0149,0.58222 -0.0282,0.58222 -0.0464,0.58222 -0.0662,0.58223 -0.0802,0.58222 -0.0799,0.58222 -0.0599,0.58223 -0.0223,0.58222 0.81881,0 0,0 -0.0223,-0.58222 -0.0599,-0.58223 -0.0799,-0.58222 -0.0802,-0.58222 -0.0662,-0.58223 -0.0464,-0.58222 -0.0282,-0.58222 -0.0149,-0.58222 -0.007,-0.58223 -0.003,-0.58222 -2.1e-4,-0.58222 0.002,-0.58223 0.006,-0.58222 0.0133,-0.58222 0.0262,-0.58222 0.0458,-0.58223 0.0707,-0.58222 0.0959,-0.58222 0.11398,-0.58223 0.11754,-0.58222 0.10278,-0.58222 0.0715,-0.58223 0.0306,-0.58222 -0.009,-0.58222 -0.0365,-0.58222 -0.0405,-0.58223 -0.0175,-0.58222 0.0252,-0.58222 0.0679,-0.58223 0.086,-0.58222 0.0637,-0.58222 0.004,-0.58222 -0.0708,-0.58223 -0.13048,-0.58222 -0.15296,-0.58222 -0.13273,-0.58223 -0.0788,-0.58222 -0.006,-0.58222 0.0712,-0.58223 0.14413,-0.58222 0.20545,-0.58222 0.24797,-0.58222 0.26353,-0.58223 0.24651,-0.58222 0.20086,-0.58222 0.14637,-0.58223 0.11637,-0.58222 0.14348,-0.58222 0.23962,-0.58222 0.38411,-0.58223 0.52996,-0.58222 0.62567,-0.58222 0.63839,-0.58223 0.56461,-0.58222 0.42737,-0.58222 0.26753,-0.58222 0.13517,-0.58223 0.078,-0.58222 0.12379,-0.58222 0.26319,-0.58223 0.44894,-0.58222 0.6172,-0.58222 0.72139,-0.58223 0.75596,-0.58222 0.75459,-0.58222 0.76586,-0.58222 0.82534,-0.58223 0.94119,-0.58222 1.0971,-0.58222 1.26461,-0.58223 1.41647,-0.58222 1.53736,-0.58222 1.6347,-0.58222 1.74754,-0.58223 1.94393,-0.58222 2.29612,-0.58222 2.8394,-0.58223 3.53956,-0.58222 4.29465,-0.58222 4.97572,-0.58222 5.48141,-0.58223 5.77398,-0.58222 5.88365,-0.58222 5.89706,-0.58223 5.94266,-0.58222 6.16094,-0.58222 6.64493,-0.58223 7.36999,-0.58222 8.16044,-0.58222 8.72539,-0.58222 8.75131,-0.58223 7.99631,-0.58222 6.33336,-0.58222 3.74323,-0.58223 0.30583,-0.58222 -3.7829,-0.58222 -8.19453,-0.58222 -12.47322,-0.58223 -16.0535,-0.58222 z"
               style="fill:#008000;fill-opacity:1;fill-rule:nonzero;stroke:#000000;stroke-width:1.5;stroke-linecap:butt;stroke-linejoin:round;stroke-miterlimit:10;stroke-dasharray:none;stroke-opacity:1"
               id="path7574"
               inkscape:connector-curvature="0" />
          </g>
        </g>
        <g
           id="g7576">
          <g
             id="g7578"
             clip-path="url(#clipPath7580)">
            <path
               d="m 1071.72,117.18432 -267.84,0 15.6076,0.18714 36.73119,0.18715 37.66598,0.18714 25.40218,0.18714 12.10875,0.18714 3.45631,0.18715 -1.63446,0.18714 -5.63976,0.18715 -8.68845,0.18714 -8.50683,0.18714 -3.61633,0.18714 3.61685,0.18715 8.51187,0.18714 8.72853,0.18714 5.8869,0.18715 2.80772,0.18714 0.80719,0.18714 -0.36156,0.18714 -1.27159,0.18715 -1.96114,0.18714 -1.92035,0.18715 -0.81637,0.18714 0.81649,0.18714 1.9215,0.18714 1.97028,0.18715 1.32796,0.18714 0.62919,0.18714 0.16533,0.18715 -0.12817,0.18714 -0.38266,0.18714 -0.58418,0.18715 -0.57144,0.18714 -0.24289,0.18714 0.24292,0.18715 0.57165,0.18714 0.58592,0.18714 0.39337,0.18714 0.17901,0.18715 0.0195,0.18714 -0.12007,0.18714 -0.28216,0.18715 -0.42285,0.18714 -0.41282,0.18714 -0.17543,0.18715 0.17544,0.18714 0.41288,0.18714 0.42332,0.18715 0.2851,0.18714 0.13398,0.18714 0.0311,0.18714 -0.0397,0.18715 -0.10716,0.18714 -0.16241,0.18714 -0.15875,0.18715 -0.0675,0.18714 0.0675,0.18714 0.1588,0.18715 0.16283,0.18714 0.10975,0.18714 0.052,0.18714 0.0136,0.18715 -0.0107,0.18714 -0.0319,0.18714 -0.0487,0.18715 -0.0476,0.18714 -0.0202,0.18714 0.0202,0.18715 0.0476,0.18714 0.0487,0.18714 0.032,0.18715 0.0113,0.18714 -0.0117,0.18714 -0.0466,0.18714 -0.0987,0.18715 -0.14654,0.18714 -0.14292,0.18714 -0.0607,0.18715 0.0607,0.18714 0.14292,0.18714 0.14652,0.18715 0.0986,0.18714 0.0461,0.18714 0.01,0.18715 -0.0166,0.18714 -0.043,0.18714 -0.065,0.18714 -0.0635,0.18715 -0.027,0.18714 0.027,0.18714 0.0635,0.18715 0.0651,0.18714 0.0438,0.18714 0.0204,0.18715 0.004,0.18714 -0.009,0.18714 -0.0216,0.18715 -0.0325,0.18714 -0.0317,0.18714 -0.0135,0.18714 0.2316,0 0,0 -0.0135,-0.18714 -0.0317,-0.18714 -0.0325,-0.18714 -0.0216,-0.18715 -0.009,-0.18714 0.004,-0.18714 0.0204,-0.18715 0.0438,-0.18714 0.0651,-0.18714 0.0635,-0.18715 0.027,-0.18714 -0.027,-0.18714 -0.0635,-0.18715 -0.065,-0.18714 -0.043,-0.18714 -0.0166,-0.18714 0.01,-0.18715 0.0461,-0.18714 0.0986,-0.18714 0.14652,-0.18715 0.14292,-0.18714 0.0607,-0.18714 -0.0607,-0.18715 -0.14292,-0.18714 -0.14654,-0.18714 -0.0987,-0.18715 -0.0466,-0.18714 -0.0117,-0.18714 0.0113,-0.18714 0.032,-0.18715 0.0487,-0.18714 0.0476,-0.18714 0.0203,-0.18715 -0.0203,-0.18714 -0.0476,-0.18714 -0.0487,-0.18715 -0.0319,-0.18714 -0.0107,-0.18714 0.0136,-0.18715 0.052,-0.18714 0.10975,-0.18714 0.16283,-0.18714 0.1588,-0.18715 0.0675,-0.18714 -0.0675,-0.18714 -0.15875,-0.18715 -0.16241,-0.18714 -0.10716,-0.18714 -0.0397,-0.18715 0.0311,-0.18714 0.13398,-0.18714 0.2851,-0.18714 0.42332,-0.18715 0.41288,-0.18714 0.17544,-0.18714 -0.17543,-0.18715 -0.41283,-0.18714 -0.42284,-0.18714 -0.28217,-0.18715 -0.12006,-0.18714 0.0195,-0.18714 0.17901,-0.18715 0.39337,-0.18714 0.58592,-0.18714 0.57165,-0.18714 0.24292,-0.18715 -0.2429,-0.18714 -0.57143,-0.18714 -0.58418,-0.18715 -0.38266,-0.18714 -0.12817,-0.18714 0.16533,-0.18715 0.62919,-0.18714 1.32796,-0.18714 1.97028,-0.18715 1.9215,-0.18714 0.81649,-0.18714 -0.81637,-0.18714 -1.92036,-0.18715 -1.96113,-0.18714 -1.27159,-0.18715 -0.36156,-0.18714 0.80719,-0.18714 2.80772,-0.18714 5.8869,-0.18715 8.72853,-0.18714 8.51187,-0.18714 3.61684,-0.18715 -3.61632,-0.18714 -8.50683,-0.18714 -8.68845,-0.18714 -5.63976,-0.18715 -1.63446,-0.18714 3.45631,-0.18715 12.10875,-0.18714 25.40218,-0.18714 37.66599,-0.18714 36.7312,-0.18715 15.6076,-0.18714 z"
               style="fill:#008000;fill-opacity:1;fill-rule:nonzero;stroke:#000000;stroke-width:1.5;stroke-linecap:butt;stroke-linejoin:round;stroke-miterlimit:10;stroke-dasharray:none;stroke-opacity:1"
               id="path7584"
               inkscape:connector-curvature="0" />
          </g>
        </g>
        <g
           id="g7586">
          <g
             id="g7588"
             clip-path="url(#clipPath7590)">
            <path
               d="m 1406.52,117.18432 -267.84,0 66.2862,0.12476 58.9218,0.12476 8.4258,0.12477 0.2838,0.12476 0,0.12476 0,0.12476 0,0.12476 0,0.12477 0,0.12476 0,0.12476 0,0.12476 0,0.12477 0,0.12476 -0.069,0.12476 -1.0025,0.12476 -3.132,0.12476 0,0.12476 3.132,0.12477 1.0025,0.12476 0.069,0.12476 0,0.12476 0,0.12477 0,0.12476 0,0.12476 0,0.12476 0,0.12476 0,0.12476 0,0.12477 0,0.12476 0,0.12476 -0.045,0.12476 -0.3166,0.12477 -0.3561,0.12476 0.3561,0.12476 0.3166,0.12476 0.045,0.12476 0,0.12477 0,0.12476 0,0.12476 0,0.12476 0,0.12476 0,0.12477 0,0.12476 0,0.12476 0,0.12476 -10e-5,0.12476 0,0.12477 -0.056,0.12476 -0.1745,0.12476 0,0.12476 0.1745,0.12477 0.056,0.12476 0,0.12476 10e-5,0.12476 0,0.12476 0,0.12476 0,0.12477 0,0.12476 0,0.12476 0,0.12476 0,0.12477 0,0.12476 -2e-4,0.12476 -0.01,0.12476 -0.043,0.12476 -0.049,0.12477 0.049,0.12476 0.043,0.12476 0.01,0.12476 2e-4,0.12476 0,0.12477 0,0.12476 0,0.12476 0,0.12476 0,0.12476 0,0.12477 0,0.12476 0,0.12476 0,0.12476 0,0.12476 -0.016,0.12477 -0.051,0.12476 0,0.12476 0.051,0.12476 0.016,0.12477 0,0.12476 0,0.12476 0,0.12476 0,0.12476 0,0.12476 0,0.12477 0,0.12476 0,0.12476 0,0.12476 0,0.12476 0,0.12477 0,0.12476 -0.01,0.12476 -0.01,0.12476 0.033,0 0,0 -0.01,-0.12476 -0.01,-0.12476 0,-0.12476 0,-0.12477 0,-0.12476 0,-0.12476 0,-0.12476 0,-0.12476 0,-0.12477 0,-0.12476 0,-0.12476 0,-0.12476 0,-0.12476 0,-0.12476 0.016,-0.12477 0.051,-0.12476 0,-0.12476 -0.051,-0.12476 -0.016,-0.12477 0,-0.12476 0,-0.12476 0,-0.12476 0,-0.12476 0,-0.12477 0,-0.12476 0,-0.12476 0,-0.12476 0,-0.12476 0,-0.12477 2e-4,-0.12476 0.01,-0.12476 0.043,-0.12476 0.049,-0.12476 -0.049,-0.12477 -0.043,-0.12476 -0.01,-0.12476 -2e-4,-0.12476 0,-0.12476 0,-0.12477 0,-0.12476 0,-0.12476 0,-0.12476 0,-0.12477 0,-0.12476 0,-0.12476 10e-5,-0.12476 0,-0.12476 0.056,-0.12476 0.1745,-0.12477 0,-0.12476 -0.1745,-0.12476 -0.056,-0.12476 0,-0.12477 -10e-5,-0.12476 0,-0.12476 0,-0.12476 0,-0.12476 0,-0.12477 0,-0.12476 0,-0.12476 0,-0.12476 0,-0.12476 0,-0.12477 0.045,-0.12476 0.3166,-0.12476 0.3561,-0.12476 -0.3561,-0.12476 -0.3166,-0.12477 -0.045,-0.12476 0,-0.12476 0,-0.12476 0,-0.12477 0,-0.12476 0,-0.12476 0,-0.12476 0,-0.12476 0,-0.12476 0,-0.12477 0,-0.12476 0.069,-0.12476 1.0025,-0.12476 3.132,-0.12477 0,-0.12476 -3.132,-0.12476 -1.0025,-0.12476 -0.069,-0.12476 0,-0.12476 0,-0.12477 0,-0.12476 0,-0.12476 0,-0.12476 0,-0.12477 0,-0.12476 0,-0.12476 0,-0.12476 0.2838,-0.12476 8.4258,-0.12477 58.9218,-0.12476 66.2862,-0.12476 z"
               style="fill:#008000;fill-opacity:1;fill-rule:nonzero;stroke:#000000;stroke-width:1.5;stroke-linecap:butt;stroke-linejoin:round;stroke-miterlimit:10;stroke-dasharray:none;stroke-opacity:1"
               id="path7594"
               inkscape:connector-curvature="0" />
          </g>
        </g>
        <g
           id="g7596">
          <text
             transform="matrix(1,0,0,-1,255.47344,63.271199)"
             style="font-variant:normal;font-weight:normal;font-size:40px;font-family:BitstreamVeraSans;-inkscape-font-specification:BitstreamVeraSans-Roman;writing-mode:lr-tb;fill:#000000;fill-opacity:1;fill-rule:nonzero;stroke:none"
             id="text7598">
            <tspan
               x="0"
               y="0"
               id="tspan7600">2</tspan>
          </text>
          <text
             transform="matrix(1,0,0,-1,590.27344,63.271199)"
             style="font-variant:normal;font-weight:normal;font-size:40px;font-family:BitstreamVeraSans;-inkscape-font-specification:BitstreamVeraSans-Roman;writing-mode:lr-tb;fill:#000000;fill-opacity:1;fill-rule:nonzero;stroke:none"
             id="text7602">
            <tspan
               x="0"
               y="0"
               id="tspan7604">3</tspan>
          </text>
          <text
             transform="matrix(1,0,0,-1,925.07344,63.271199)"
             style="font-variant:normal;font-weight:normal;font-size:40px;font-family:BitstreamVeraSans;-inkscape-font-specification:BitstreamVeraSans-Roman;writing-mode:lr-tb;fill:#000000;fill-opacity:1;fill-rule:nonzero;stroke:none"
             id="text7606">
            <tspan
               x="0"
               y="0"
               id="tspan7608">4</tspan>
          </text>
          <text
             transform="matrix(1,0,0,-1,1259.8734,63.271199)"
             style="font-variant:normal;font-weight:normal;font-size:40px;font-family:BitstreamVeraSans;-inkscape-font-specification:BitstreamVeraSans-Roman;writing-mode:lr-tb;fill:#000000;fill-opacity:1;fill-rule:nonzero;stroke:none"
             id="text7610">
            <tspan
               x="0"
               y="0"
               id="tspan7612">5</tspan>
          </text>
          <text
             transform="matrix(1,0,0,-1,535.30625,-3.041301)"
             style="font-variant:normal;font-weight:normal;font-size:50px;font-family:BitstreamVeraSans;-inkscape-font-specification:BitstreamVeraSans-Roman;writing-mode:lr-tb;fill:#000000;fill-opacity:1;fill-rule:nonzero;stroke:none"
             id="text7614">
            <tspan
               x="0 34.900002 65.550003 97.25 124.75 155.5 176.05 202.10001 218 245.5 276.10001 324.79999 356.54999 387.20001 407.75 438.5"
               y="0"
               sodipodi:role="line"
               id="tspan7616">Cancers compared</tspan>
          </text>
          <text
             transform="matrix(1,0,0,-1,77.70625,108.90307)"
             style="font-variant:normal;font-weight:normal;font-size:30px;font-family:BitstreamVeraSans;-inkscape-font-specification:BitstreamVeraSans-Roman;writing-mode:lr-tb;fill:#000000;fill-opacity:1;fill-rule:nonzero;stroke:none"
             id="text7618">
            <tspan
               x="0"
               y="0"
               id="tspan7620">0</tspan>
          </text>
          <text
             transform="matrix(1,0,0,-1,58.6125,194.12803)"
             style="font-variant:normal;font-weight:normal;font-size:30px;font-family:BitstreamVeraSans;-inkscape-font-specification:BitstreamVeraSans-Roman;writing-mode:lr-tb;fill:#000000;fill-opacity:1;fill-rule:nonzero;stroke:none"
             id="text7622">
            <tspan
               x="0 19.08"
               y="0"
               sodipodi:role="line"
               id="tspan7624">10</tspan>
          </text>
          <text
             transform="matrix(1,0,0,-1,58.6125,279.35299)"
             style="font-variant:normal;font-weight:normal;font-size:30px;font-family:BitstreamVeraSans;-inkscape-font-specification:BitstreamVeraSans-Roman;writing-mode:lr-tb;fill:#000000;fill-opacity:1;fill-rule:nonzero;stroke:none"
             id="text7626">
            <tspan
               x="0 19.08"
               y="0"
               sodipodi:role="line"
               id="tspan7628">20</tspan>
          </text>
          <text
             transform="matrix(1,0,0,-1,58.6125,364.57795)"
             style="font-variant:normal;font-weight:normal;font-size:30px;font-family:BitstreamVeraSans;-inkscape-font-specification:BitstreamVeraSans-Roman;writing-mode:lr-tb;fill:#000000;fill-opacity:1;fill-rule:nonzero;stroke:none"
             id="text7630">
            <tspan
               x="0 19.08"
               y="0"
               sodipodi:role="line"
               id="tspan7632">30</tspan>
          </text>
          <text
             transform="matrix(1,0,0,-1,58.6125,449.80291)"
             style="font-variant:normal;font-weight:normal;font-size:30px;font-family:BitstreamVeraSans;-inkscape-font-specification:BitstreamVeraSans-Roman;writing-mode:lr-tb;fill:#000000;fill-opacity:1;fill-rule:nonzero;stroke:none"
             id="text7634">
            <tspan
               x="0 19.08"
               y="0"
               sodipodi:role="line"
               id="tspan7636">40</tspan>
          </text>
          <text
             transform="matrix(1,0,0,-1,58.6125,535.02787)"
             style="font-variant:normal;font-weight:normal;font-size:30px;font-family:BitstreamVeraSans;-inkscape-font-specification:BitstreamVeraSans-Roman;writing-mode:lr-tb;fill:#000000;fill-opacity:1;fill-rule:nonzero;stroke:none"
             id="text7638">
            <tspan
               x="0 19.08"
               y="0"
               sodipodi:role="line"
               id="tspan7640">50</tspan>
          </text>
          <text
             transform="matrix(0,1,1,0,28.20625,102.10266)"
             style="font-variant:normal;font-weight:normal;font-size:50px;font-family:BitstreamVeraSans;-inkscape-font-specification:BitstreamVeraSans-Roman;writing-mode:lr-tb;fill:#000000;fill-opacity:1;fill-rule:nonzero;stroke:none"
             id="text7642">
            <tspan
               x="0 38.75 69.5 101.2 131.95 158 173.89999 199.95 231.64999 262.29999 282.85001 313.60001 345.35001 361.25 380.75 428.25"
               y="0"
               sodipodi:role="line"
               id="tspan7644">Genes shared (%)</tspan>
          </text>
          <text
             transform="matrix(1,0,0,-1,647.11094,504.84439)"
             style="font-variant:normal;font-weight:normal;font-size:60px;font-family:BitstreamVeraSans;-inkscape-font-specification:BitstreamVeraSans-Roman;writing-mode:lr-tb;fill:#000000;fill-opacity:1;fill-rule:nonzero;stroke:none"
             id="text7646">
            <tspan
               x="0 16.68 54.720001 87.720001 129.42 174.3 215.34"
               y="0"
               sodipodi:role="line"
               id="tspan7648">lncRNAs</tspan>
          </text>
        </g>
      </g>
      <g
         id="g6980"
         inkscape:label="mirnas"
         transform="matrix(0.34143064,0,0,-0.34143064,107.10086,478.08025)">
        <path
           d="m 0,0 1440,0 0,603.6768 -1440,0 L 0,0 Z"
           style="fill:#ffffff;fill-opacity:1;fill-rule:nonzero;stroke:none"
           id="path6982"
           inkscape:connector-curvature="0" />
        <path
           d="m 100.8,108.66182 1339.2,0 0,434.6473 -1339.2,0 0,-434.6473 z"
           style="fill:#ffffff;fill-opacity:1;fill-rule:nonzero;stroke:none"
           id="path6984"
           inkscape:connector-curvature="0" />
        <g
           id="g6986">
          <g
             id="g6988"
             clip-path="url(#clipPath6990)">
            <path
               d="m 343.38587,117.18432 -150.37174,0 -6.34835,2.78513 -6.17471,2.78513 -5.93799,2.78513 -5.64564,2.78513 -5.30533,2.78513 -4.92457,2.78513 -4.51078,2.78513 -4.07122,2.78512 -3.61293,2.78513 -3.1427,2.78513 -2.66692,2.78513 -2.19155,2.78513 -1.72204,2.78513 -1.26332,2.78513 -0.81995,2.78513 -0.39613,2.78513 0.004,2.78513 0.37732,2.78513 0.71999,2.78513 1.0296,2.78513 1.30445,2.78513 1.54414,2.78513 1.74977,2.78513 1.92397,2.78513 2.07095,2.78512 2.19613,2.78513 2.30576,2.78513 2.40634,2.78513 2.50411,2.78513 2.60425,2.78513 2.7105,2.78513 2.82455,2.78513 2.94578,2.78513 3.07119,2.78513 3.19556,2.78513 3.31186,2.78513 3.41195,2.78513 3.48753,2.78513 3.53103,2.78513 3.53667,2.78513 3.5011,2.78513 3.42413,2.78512 3.3087,2.78513 3.16078,2.78513 2.98883,2.78513 2.80293,2.78513 2.6138,2.78513 2.43184,2.78513 2.26611,2.78513 2.12365,2.78513 2.00886,2.78513 1.92344,2.78513 1.86629,2.78513 1.83402,2.78513 1.82139,2.78513 1.82204,2.78513 1.82921,2.78513 1.83636,2.78513 1.83782,2.78512 1.82907,2.78513 1.807,2.78513 1.76993,2.78513 1.71744,2.78513 1.65022,2.78513 1.56975,2.78513 1.47814,2.78513 1.37778,2.78513 1.27131,2.78513 1.16138,2.78513 1.05064,2.78513 0.94162,2.78513 0.83673,2.78513 0.73811,2.78513 0.64762,2.78513 0.56671,2.78513 0.49641,2.78512 0.4372,2.78514 0.38902,2.78512 0.35131,2.78513 0.32303,2.78513 0.30276,2.78513 0.28886,2.78513 0.27967,2.78513 0.27356,2.78513 0.2692,2.78513 0.26559,2.78513 0.26221,2.78513 0.25894,2.78513 0.25612,2.78513 0.25439,2.78513 0.25464,2.78513 0.25777,2.78513 0.26459,2.78512 0.27567,2.78513 0.29121,2.78513 0.31089,2.78513 0.33396,2.78513 0.35915,2.78513 0.38483,2.78513 11.79338,0 0,0 0.38483,-2.78513 0.35915,-2.78513 0.33396,-2.78513 0.31089,-2.78513 0.29121,-2.78513 0.27567,-2.78513 0.26459,-2.78512 0.25777,-2.78513 0.25464,-2.78513 0.25439,-2.78513 0.25612,-2.78513 0.25894,-2.78513 0.26221,-2.78513 0.26559,-2.78513 0.2692,-2.78513 0.27356,-2.78513 0.27967,-2.78513 0.28886,-2.78513 0.30276,-2.78513 0.32303,-2.78513 0.35131,-2.78513 0.38902,-2.78512 0.4372,-2.78514 0.49641,-2.78512 0.56671,-2.78513 0.64761,-2.78513 0.73812,-2.78513 0.83673,-2.78513 0.94162,-2.78513 1.05064,-2.78513 1.16138,-2.78513 1.27131,-2.78513 1.37778,-2.78513 1.47814,-2.78513 1.56975,-2.78513 1.65022,-2.78513 1.71744,-2.78513 1.76992,-2.78513 1.80701,-2.78513 1.82907,-2.78513 1.83782,-2.78512 1.83636,-2.78513 1.8292,-2.78513 1.82205,-2.78513 1.82139,-2.78513 1.83402,-2.78513 1.86629,-2.78513 1.92344,-2.78513 2.00886,-2.78513 2.12365,-2.78513 2.26611,-2.78513 2.43184,-2.78513 2.6138,-2.78513 2.80292,-2.78513 2.98884,-2.78513 3.16078,-2.78513 3.30869,-2.78513 3.42413,-2.78512 3.50111,-2.78513 3.53667,-2.78513 3.53103,-2.78513 3.48753,-2.78513 3.41195,-2.78513 3.31186,-2.78513 3.19556,-2.78513 3.07119,-2.78513 2.94578,-2.78513 2.82455,-2.78513 2.7105,-2.78513 2.60425,-2.78513 2.50411,-2.78513 2.40634,-2.78513 2.30576,-2.78513 2.19613,-2.78513 2.07095,-2.78512 1.92397,-2.78513 1.74976,-2.78513 1.54415,-2.78513 1.30445,-2.78513 1.0296,-2.78513 0.71999,-2.78513 0.37732,-2.78513 0.004,-2.78513 -0.39613,-2.78513 -0.81995,-2.78513 -1.26332,-2.78513 -1.72204,-2.78513 -2.19155,-2.78513 -2.66692,-2.78513 -3.1427,-2.78513 -3.61293,-2.78513 -4.07122,-2.78512 -4.51078,-2.78513 -4.92457,-2.78513 -5.30533,-2.78513 -5.64564,-2.78513 -5.93799,-2.78513 -6.17471,-2.78513 -6.34835,-2.78513 z"
               style="fill:#ff0000;fill-opacity:1;fill-rule:nonzero;stroke:#000000;stroke-width:1.5;stroke-linecap:butt;stroke-linejoin:round;stroke-miterlimit:10;stroke-dasharray:none;stroke-opacity:1"
               id="path6994"
               inkscape:connector-curvature="0" />
          </g>
        </g>
        <g
           id="g6996">
          <g
             id="g6998"
             clip-path="url(#clipPath7000)">
            <path
               d="m 736.92,117.18432 -267.84,0 6.78452,1.51916 18.35986,1.51916 24.89785,1.51916 25.58003,1.51917 21.75824,1.51916 15.82951,1.51916 9.93406,1.51916 5.22236,1.51916 1.85027,1.51916 -0.59246,1.51916 -2.58895,1.51917 -4.35207,1.51916 -5.70223,1.51916 -6.178,1.51916 -5.33875,1.51916 -3.11713,1.51916 1.6e-4,1.51916 3.11795,1.51917 5.34225,1.51916 6.19174,1.51916 5.75084,1.51916 4.50618,1.51916 3.02634,1.51916 1.70198,1.51917 0.66037,1.51916 -0.16884,1.51916 -0.92172,1.51916 -1.67473,1.51916 -2.36746,1.51916 -2.80169,1.51916 -2.73138,1.51917 -2.01497,1.51916 -0.74466,1.51916 0.74477,1.51916 2.01539,1.51916 2.73314,1.51916 2.80821,1.51916 2.38934,1.51917 1.74038,1.51916 1.09787,1.51916 0.59101,1.51916 0.241,1.51916 0.007,1.51916 -0.16386,1.51917 -0.30096,1.51916 -0.40106,1.51916 -0.43622,1.51916 -0.37734,1.51916 -0.22037,1.51916 2e-5,1.51916 0.22047,1.51917 0.37773,1.51916 0.43781,1.51916 0.40665,1.51916 0.31871,1.51916 0.21425,1.51916 0.12099,1.51916 0.0482,1.51917 -0.009,1.51916 -0.0599,1.51916 -0.11009,1.51916 -0.15598,1.51916 -0.18469,1.51916 -0.18009,1.51917 -0.13285,1.51916 -0.0491,1.51916 0.0491,1.51916 0.13289,1.51916 0.18021,1.51916 0.18519,1.51916 0.15765,1.51917 0.11508,1.51916 0.0733,1.51916 0.0411,1.51916 0.0204,1.51916 0.009,1.51916 0.004,1.51916 10e-4,1.51917 3.9e-4,1.51916 1.1e-4,1.51916 3e-5,1.51916 10e-6,1.51916 0,1.51916 0,1.51917 -10e-6,1.51916 -4e-5,1.51916 -1.3e-4,1.51916 -4.2e-4,1.51916 -0.001,1.51916 -0.003,1.51916 -0.007,1.51917 -0.0137,1.51916 -0.0244,1.51916 -0.0384,1.51916 -0.0525,1.51916 -0.0617,1.51916 -0.0601,1.51917 -0.0443,1.51916 -0.0164,1.51916 0.64618,0 0,0 -0.0164,-1.51916 -0.0443,-1.51916 -0.0601,-1.51917 -0.0617,-1.51916 -0.0525,-1.51916 -0.0384,-1.51916 -0.0244,-1.51916 -0.0137,-1.51916 -0.007,-1.51917 -0.003,-1.51916 -10e-4,-1.51916 -4.2e-4,-1.51916 -1.3e-4,-1.51916 -4e-5,-1.51916 -10e-6,-1.51916 0,-1.51917 0,-1.51916 10e-6,-1.51916 3e-5,-1.51916 1.1e-4,-1.51916 3.9e-4,-1.51916 10e-4,-1.51917 0.004,-1.51916 0.009,-1.51916 0.0204,-1.51916 0.0411,-1.51916 0.0733,-1.51916 0.11508,-1.51916 0.15765,-1.51917 0.18519,-1.51916 0.18021,-1.51916 0.13289,-1.51916 0.0491,-1.51916 -0.0491,-1.51916 -0.13285,-1.51916 -0.18009,-1.51917 -0.18469,-1.51916 -0.15598,-1.51916 -0.11009,-1.51916 -0.0599,-1.51916 -0.009,-1.51916 0.0482,-1.51917 0.12099,-1.51916 0.21424,-1.51916 0.31872,-1.51916 0.40665,-1.51916 0.43781,-1.51916 0.37773,-1.51916 0.22047,-1.51917 1e-5,-1.51916 -0.22036,-1.51916 -0.37734,-1.51916 -0.43622,-1.51916 -0.40106,-1.51916 -0.30096,-1.51916 -0.16386,-1.51917 0.007,-1.51916 0.241,-1.51916 0.59101,-1.51916 1.09787,-1.51916 1.74038,-1.51916 2.38934,-1.51917 2.80821,-1.51916 2.73314,-1.51916 2.01539,-1.51916 0.74477,-1.51916 -0.74466,-1.51916 -2.01497,-1.51916 -2.73138,-1.51917 -2.80169,-1.51916 -2.36746,-1.51916 -1.67474,-1.51916 -0.92171,-1.51916 -0.16884,-1.51916 0.66037,-1.51916 1.70198,-1.51917 3.02634,-1.51916 4.50618,-1.51916 5.75084,-1.51916 6.19174,-1.51916 5.34225,-1.51916 3.11795,-1.51917 1.6e-4,-1.51916 -3.11713,-1.51916 -5.33875,-1.51916 -6.178,-1.51916 -5.70223,-1.51916 -4.35207,-1.51916 -2.58895,-1.51917 -0.59246,-1.51916 1.85027,-1.51916 5.22236,-1.51916 9.93406,-1.51916 15.82951,-1.51916 21.75824,-1.51916 25.58003,-1.51917 24.89785,-1.51916 18.35986,-1.51916 6.78452,-1.51916 z"
               style="fill:#ff0000;fill-opacity:1;fill-rule:nonzero;stroke:#000000;stroke-width:1.5;stroke-linecap:butt;stroke-linejoin:round;stroke-miterlimit:10;stroke-dasharray:none;stroke-opacity:1"
               id="path7004"
               inkscape:connector-curvature="0" />
          </g>
        </g>
        <g
           id="g7006">
          <g
             id="g7008"
             clip-path="url(#clipPath7010)">
            <path
               d="m 1071.72,117.18432 -267.84,0 20.40783,0.75958 44.38746,0.75958 38.88217,0.75958 20.73656,0.75958 7.35929,0.75958 1.7984,0.75958 0.30769,0.75959 0.0372,0.75958 0.003,0.75958 1.9e-4,0.75958 10e-6,0.75958 0,0.75958 0,0.75958 0,0.75958 0,0.75958 0,0.75958 0,0.75958 0,0.75958 0,0.75958 0,0.75958 0,0.75959 0,0.75958 0,0.75958 -10e-6,0.75958 -1.4e-4,0.75958 -0.002,0.75958 -0.014,0.75958 -0.0816,0.75958 -0.33385,0.75958 -0.94072,0.75958 -1.76391,0.75958 -2.01365,0.75958 -0.9258,0.75958 0.9258,0.75958 2.01365,0.75959 1.76391,0.75958 0.94072,0.75958 0.33385,0.75958 0.0816,0.75958 0.014,0.75958 0.002,0.75958 1.4e-4,0.75958 10e-6,0.75958 0,0.75958 0,0.75958 0,0.75958 0,0.75958 0,0.75959 0,0.75958 0,0.75958 0,0.75958 0,0.75958 0,0.75958 0,0.75958 0,0.75958 0,0.75958 0,0.75958 -4e-5,0.75958 -4.1e-4,0.75958 -0.003,0.75958 -0.02,0.75959 -0.0819,0.75958 -0.23066,0.75958 -0.43249,0.75958 -0.49373,0.75958 -0.227,0.75958 0.227,0.75958 0.49373,0.75958 0.43249,0.75958 0.23066,0.75958 0.0819,0.75958 0.02,0.75958 0.003,0.75958 4.1e-4,0.75958 4e-5,0.75959 0,0.75958 0,0.75958 0,0.75958 0,0.75958 0,0.75958 0,0.75958 0,0.75958 0,0.75958 0,0.75958 0,0.75958 0,0.75958 0,0.75958 0,0.75959 0,0.75958 0,0.75958 0,0.75958 -10e-6,0.75958 -7e-5,0.75958 -3.9e-4,0.75958 -0.002,0.75958 -0.005,0.75958 -0.008,0.75958 -0.01,0.75958 -0.004,0.75958 0.0584,0 0,0 -0.004,-0.75958 -0.01,-0.75958 -0.008,-0.75958 -0.005,-0.75958 -0.002,-0.75958 -3.9e-4,-0.75958 -7e-5,-0.75958 -10e-6,-0.75958 0,-0.75958 0,-0.75958 0,-0.75958 0,-0.75959 0,-0.75958 0,-0.75958 0,-0.75958 0,-0.75958 0,-0.75958 0,-0.75958 0,-0.75958 0,-0.75958 0,-0.75958 0,-0.75958 0,-0.75958 0,-0.75958 4e-5,-0.75959 4.1e-4,-0.75958 0.003,-0.75958 0.02,-0.75958 0.0819,-0.75958 0.23065,-0.75958 0.4325,-0.75958 0.49373,-0.75958 0.227,-0.75958 -0.227,-0.75958 -0.49373,-0.75958 -0.4325,-0.75958 -0.23065,-0.75958 -0.0819,-0.75958 -0.02,-0.75959 -0.003,-0.75958 -4.1e-4,-0.75958 -4e-5,-0.75958 0,-0.75958 0,-0.75958 0,-0.75958 0,-0.75958 0,-0.75958 0,-0.75958 0,-0.75958 0,-0.75958 0,-0.75958 0,-0.75959 0,-0.75958 0,-0.75958 0,-0.75958 0,-0.75958 10e-6,-0.75958 1.4e-4,-0.75958 0.002,-0.75958 0.014,-0.75958 0.0816,-0.75958 0.33386,-0.75958 0.94072,-0.75958 1.7639,-0.75958 2.01366,-0.75959 0.9258,-0.75958 -0.9258,-0.75958 -2.01366,-0.75958 -1.7639,-0.75958 -0.94072,-0.75958 -0.33386,-0.75958 -0.0816,-0.75958 -0.014,-0.75958 -0.002,-0.75958 -1.4e-4,-0.75958 -10e-6,-0.75958 0,-0.75958 0,-0.75958 0,-0.75959 0,-0.75958 0,-0.75958 0,-0.75958 0,-0.75958 0,-0.75958 0,-0.75958 0,-0.75958 0,-0.75958 0,-0.75958 10e-6,-0.75958 1.9e-4,-0.75958 0.003,-0.75958 0.0372,-0.75958 0.30769,-0.75959 1.7984,-0.75958 7.35929,-0.75958 20.73656,-0.75958 38.8822,-0.75958 44.3875,-0.75958 20.4078,-0.75958 z"
               style="fill:#ff0000;fill-opacity:1;fill-rule:nonzero;stroke:#000000;stroke-width:1.5;stroke-linecap:butt;stroke-linejoin:round;stroke-miterlimit:10;stroke-dasharray:none;stroke-opacity:1"
               id="path7014"
               inkscape:connector-curvature="0" />
          </g>
        </g>
        <g
           id="g7016">
          <g
             id="g7018"
             clip-path="url(#clipPath7020)">
            <path
               d="m 1406.52,117.18432 -267.84,0 67.2658,0.50639 58.4361,0.50638 7.9671,0.50639 0.2491,0.50639 0,0.50639 0,0.50638 0,0.50639 0,0.50639 0,0.50638 0,0.50639 0,0.50639 0,0.50639 0,0.50638 0,0.50639 0,0.50639 0,0.50639 0,0.50638 0,0.50639 0,0.50639 0,0.50638 0,0.50639 0,0.50639 0,0.50639 0,0.50638 0,0.50639 0,0.50639 0,0.50638 0,0.50639 0,0.50639 0,0.50638 0,0.50639 0,0.50639 0,0.50639 0,0.50638 0,0.50639 0,0.50639 0,0.50638 0,0.50639 0,0.50639 0,0.50639 0,0.50638 0,0.50639 0,0.50639 0,0.50638 0,0.50639 -2e-4,0.50639 -0.014,0.50639 -0.2129,0.50638 -0.6888,0.50639 0,0.50639 0.6888,0.50638 0.2129,0.50639 0.014,0.50639 2e-4,0.50639 0,0.50638 0,0.50639 0,0.50639 0,0.50639 0,0.50638 0,0.50639 0,0.50639 0,0.50638 0,0.50639 0,0.50639 0,0.50639 0,0.50638 0,0.50639 0,0.50639 0,0.50638 0,0.50639 0,0.50639 0,0.50639 0,0.50638 0,0.50639 0,0.50639 0,0.50638 0,0.50639 0,0.50639 0,0.50639 0,0.50638 0,0.50639 0,0.50639 0,0.50638 0,0.50639 0,0.50639 0,0.50639 0,0.50638 0,0.50639 0,0.50639 0,0.50638 0,0.50639 0,0.50639 0,0.50639 0,0.50638 0,0.50639 -4e-4,0.50639 -0.012,0.50638 -0.088,0.50639 -0.1008,0.50639 0.4012,0 0,0 -0.1008,-0.50639 -0.088,-0.50639 -0.012,-0.50638 -4e-4,-0.50639 0,-0.50639 0,-0.50638 0,-0.50639 0,-0.50639 0,-0.50639 0,-0.50638 0,-0.50639 0,-0.50639 0,-0.50638 0,-0.50639 0,-0.50639 0,-0.50639 0,-0.50638 0,-0.50639 0,-0.50639 0,-0.50638 0,-0.50639 0,-0.50639 0,-0.50639 0,-0.50638 0,-0.50639 0,-0.50639 0,-0.50638 0,-0.50639 0,-0.50639 0,-0.50639 0,-0.50638 0,-0.50639 0,-0.50639 0,-0.50638 0,-0.50639 0,-0.50639 0,-0.50639 0,-0.50638 0,-0.50639 0,-0.50639 0,-0.50638 0,-0.50639 0,-0.50639 0,-0.50639 0,-0.50638 2e-4,-0.50639 0.014,-0.50639 0.2129,-0.50639 0.6888,-0.50638 0,-0.50639 -0.6888,-0.50639 -0.2129,-0.50638 -0.014,-0.50639 -2e-4,-0.50639 0,-0.50639 0,-0.50638 0,-0.50639 0,-0.50639 0,-0.50638 0,-0.50639 0,-0.50639 0,-0.50639 0,-0.50638 0,-0.50639 0,-0.50639 0,-0.50638 0,-0.50639 0,-0.50639 0,-0.50639 0,-0.50638 0,-0.50639 0,-0.50639 0,-0.50638 0,-0.50639 0,-0.50639 0,-0.50638 0,-0.50639 0,-0.50639 0,-0.50639 0,-0.50638 0,-0.50639 0,-0.50639 0,-0.50638 0,-0.50639 0,-0.50639 0,-0.50639 0,-0.50638 0,-0.50639 0,-0.50639 0,-0.50639 0,-0.50638 0,-0.50639 0,-0.50639 0,-0.50638 0,-0.50639 0.2491,-0.50639 7.9671,-0.50639 58.4361,-0.50638 67.2658,-0.50639 z"
               style="fill:#ff0000;fill-opacity:1;fill-rule:nonzero;stroke:#000000;stroke-width:1.5;stroke-linecap:butt;stroke-linejoin:round;stroke-miterlimit:10;stroke-dasharray:none;stroke-opacity:1"
               id="path7024"
               inkscape:connector-curvature="0" />
          </g>
        </g>
        <g
           id="g7026">
          <text
             transform="matrix(1,0,0,-1,255.47344,63.271199)"
             style="font-variant:normal;font-weight:normal;font-size:40px;font-family:BitstreamVeraSans;-inkscape-font-specification:BitstreamVeraSans-Roman;writing-mode:lr-tb;fill:#000000;fill-opacity:1;fill-rule:nonzero;stroke:none"
             id="text7028">
            <tspan
               x="0"
               y="0"
               id="tspan7030">2</tspan>
          </text>
          <text
             transform="matrix(1,0,0,-1,590.27344,63.271199)"
             style="font-variant:normal;font-weight:normal;font-size:40px;font-family:BitstreamVeraSans;-inkscape-font-specification:BitstreamVeraSans-Roman;writing-mode:lr-tb;fill:#000000;fill-opacity:1;fill-rule:nonzero;stroke:none"
             id="text7032">
            <tspan
               x="0"
               y="0"
               id="tspan7034">3</tspan>
          </text>
          <text
             transform="matrix(1,0,0,-1,925.07344,63.271199)"
             style="font-variant:normal;font-weight:normal;font-size:40px;font-family:BitstreamVeraSans;-inkscape-font-specification:BitstreamVeraSans-Roman;writing-mode:lr-tb;fill:#000000;fill-opacity:1;fill-rule:nonzero;stroke:none"
             id="text7036">
            <tspan
               x="0"
               y="0"
               id="tspan7038">4</tspan>
          </text>
          <text
             transform="matrix(1,0,0,-1,1259.8734,63.271199)"
             style="font-variant:normal;font-weight:normal;font-size:40px;font-family:BitstreamVeraSans;-inkscape-font-specification:BitstreamVeraSans-Roman;writing-mode:lr-tb;fill:#000000;fill-opacity:1;fill-rule:nonzero;stroke:none"
             id="text7040">
            <tspan
               x="0"
               y="0"
               id="tspan7042">5</tspan>
          </text>
          <text
             transform="matrix(1,0,0,-1,535.30625,-3.041301)"
             style="font-variant:normal;font-weight:normal;font-size:50px;font-family:BitstreamVeraSans;-inkscape-font-specification:BitstreamVeraSans-Roman;writing-mode:lr-tb;fill:#000000;fill-opacity:1;fill-rule:nonzero;stroke:none"
             id="text7044">
            <tspan
               x="0 34.900002 65.550003 97.25 124.75 155.5 176.05 202.10001 218 245.5 276.10001 324.79999 356.54999 387.20001 407.75 438.5"
               y="0"
               sodipodi:role="line"
               id="tspan7046">Cancers compared</tspan>
          </text>
          <text
             transform="matrix(1,0,0,-1,77.70625,108.90307)"
             style="font-variant:normal;font-weight:normal;font-size:30px;font-family:BitstreamVeraSans;-inkscape-font-specification:BitstreamVeraSans-Roman;writing-mode:lr-tb;fill:#000000;fill-opacity:1;fill-rule:nonzero;stroke:none"
             id="text7048">
            <tspan
               x="0"
               y="0"
               id="tspan7050">0</tspan>
          </text>
          <text
             transform="matrix(1,0,0,-1,58.6125,194.12803)"
             style="font-variant:normal;font-weight:normal;font-size:30px;font-family:BitstreamVeraSans;-inkscape-font-specification:BitstreamVeraSans-Roman;writing-mode:lr-tb;fill:#000000;fill-opacity:1;fill-rule:nonzero;stroke:none"
             id="text7052">
            <tspan
               x="0 19.08"
               y="0"
               sodipodi:role="line"
               id="tspan7054">10</tspan>
          </text>
          <text
             transform="matrix(1,0,0,-1,58.6125,279.35299)"
             style="font-variant:normal;font-weight:normal;font-size:30px;font-family:BitstreamVeraSans;-inkscape-font-specification:BitstreamVeraSans-Roman;writing-mode:lr-tb;fill:#000000;fill-opacity:1;fill-rule:nonzero;stroke:none"
             id="text7056">
            <tspan
               x="0 19.08"
               y="0"
               sodipodi:role="line"
               id="tspan7058">20</tspan>
          </text>
          <text
             transform="matrix(1,0,0,-1,58.6125,364.57795)"
             style="font-variant:normal;font-weight:normal;font-size:30px;font-family:BitstreamVeraSans;-inkscape-font-specification:BitstreamVeraSans-Roman;writing-mode:lr-tb;fill:#000000;fill-opacity:1;fill-rule:nonzero;stroke:none"
             id="text7060">
            <tspan
               x="0 19.08"
               y="0"
               sodipodi:role="line"
               id="tspan7062">30</tspan>
          </text>
          <text
             transform="matrix(1,0,0,-1,58.6125,449.80291)"
             style="font-variant:normal;font-weight:normal;font-size:30px;font-family:BitstreamVeraSans;-inkscape-font-specification:BitstreamVeraSans-Roman;writing-mode:lr-tb;fill:#000000;fill-opacity:1;fill-rule:nonzero;stroke:none"
             id="text7064">
            <tspan
               x="0 19.08"
               y="0"
               sodipodi:role="line"
               id="tspan7066">40</tspan>
          </text>
          <text
             transform="matrix(1,0,0,-1,58.6125,535.02787)"
             style="font-variant:normal;font-weight:normal;font-size:30px;font-family:BitstreamVeraSans;-inkscape-font-specification:BitstreamVeraSans-Roman;writing-mode:lr-tb;fill:#000000;fill-opacity:1;fill-rule:nonzero;stroke:none"
             id="text7068">
            <tspan
               x="0 19.08"
               y="0"
               sodipodi:role="line"
               id="tspan7070">50</tspan>
          </text>
          <text
             transform="matrix(0,1,1,0,28.20625,102.10266)"
             style="font-variant:normal;font-weight:normal;font-size:50px;font-family:BitstreamVeraSans;-inkscape-font-specification:BitstreamVeraSans-Roman;writing-mode:lr-tb;fill:#000000;fill-opacity:1;fill-rule:nonzero;stroke:none"
             id="text7072">
            <tspan
               x="0 38.75 69.5 101.2 131.95 158 173.89999 199.95 231.64999 262.29999 282.85001 313.60001 345.35001 361.25 380.75 428.25"
               y="0"
               sodipodi:role="line"
               id="tspan7074">Genes shared (%)</tspan>
          </text>
          <text
             transform="matrix(1,0,0,-1,653.39219,504.84439)"
             style="font-variant:normal;font-weight:normal;font-size:60px;font-family:BitstreamVeraSans;-inkscape-font-specification:BitstreamVeraSans-Roman;writing-mode:lr-tb;fill:#000000;fill-opacity:1;fill-rule:nonzero;stroke:none"
             id="text7076">
            <tspan
               x="0 58.439999 75.120003 116.82 161.7 202.74001"
               y="0"
               sodipodi:role="line"
               id="tspan7078">miRNAs</tspan>
          </text>
        </g>
      </g>
      <g
         id="g6822"
         inkscape:label="mrnas"
         transform="matrix(0.34143064,0,0,-0.34143064,107.10086,272.50605)">
        <path
           d="m 0,0 1440,0 0,603.6768 -1440,0 L 0,0 Z"
           style="fill:#ffffff;fill-opacity:1;fill-rule:nonzero;stroke:none"
           id="path6824"
           inkscape:connector-curvature="0" />
        <path
           d="m 100.8,108.66182 1339.2,0 0,434.6473 -1339.2,0 0,-434.6473 z"
           style="fill:#ffffff;fill-opacity:1;fill-rule:nonzero;stroke:none"
           id="path6826"
           inkscape:connector-curvature="0" />
        <g
           id="g6828">
          <g
             id="g6830"
             clip-path="url(#clipPath6832)">
            <path
               d="m 295.83626,120.84991 -55.27252,0 -8.37228,3.03615 -9.69664,3.03614 -10.84664,3.03615 -11.69916,3.03614 -12.13752,3.03614 -12.06736,3.03615 -11.43155,3.03614 -10.22117,3.03615 -8.48002,3.03614 -6.30229,3.03615 -3.82332,3.03614 -1.20579,3.03615 1.37702,3.03614 3.75871,3.03615 5.79627,3.03614 7.38416,3.03615 8.46402,3.03614 9.0286,3.03615 9.11853,3.03614 8.81225,3.03615 8.21066,3.03614 7.41972,3.03615 6.53461,3.03614 5.62879,3.03615 4.74955,3.03614 3.92042,3.03615 3.14839,3.03614 2.43396,3.03615 1.78072,3.03614 1.20205,3.03615 0.72298,3.03614 0.37638,3.03615 0.19435,3.03614 0.19712,3.03615 0.38319,3.03614 0.72384,3.03615 1.16488,3.03614 1.63557,3.03615 2.06213,3.03614 2.38238,3.03615 2.5567,3.03614 2.57276,3.03615 2.4435,3.03614 2.19993,3.03615 1.8822,3.03614 1.5316,3.03615 1.18522,3.03614 0.87342,3.03615 0.61878,3.03614 0.43553,3.03615 0.32885,3.03614 0.29434,3.03615 0.31869,3.03614 0.38202,3.03615 0.46194,3.03614 0.53803,3.03615 0.59572,3.03614 0.62802,3.03615 0.63503,3.03614 0.62157,3.03615 0.59418,3.03614 0.55846,3.03615 0.5178,3.03614 0.47337,3.03615 0.4251,3.03614 0.37293,3.03615 0.31772,3.03614 0.26143,3.03615 0.20687,3.03614 0.15691,3.03615 0.11378,3.03614 0.0788,3.03615 0.052,3.03614 0.0327,3.03615 0.0196,3.03614 0.0112,3.03615 0.006,3.03614 0.003,3.03615 10e-4,3.03614 5.8e-4,3.03615 -3e-5,3.03614 -6.3e-4,3.03615 -0.002,3.03614 -0.003,3.03615 -0.006,3.03614 -0.0111,3.03615 -0.0191,3.03614 -0.0309,3.03615 -0.0474,3.03614 -0.0688,3.03615 -0.0942,3.03614 -0.1212,3.03615 -0.14619,3.03614 -0.16421,3.03615 -0.17013,3.03614 -0.15983,3.03615 -0.13154,3.03614 -0.0867,3.03615 -0.0303,3.03614 2.5881,0 0,0 -0.0303,-3.03614 -0.0867,-3.03615 -0.13154,-3.03614 -0.15983,-3.03615 -0.17013,-3.03614 -0.16421,-3.03615 -0.14619,-3.03614 -0.1212,-3.03615 -0.0942,-3.03614 -0.0688,-3.03615 -0.0474,-3.03614 -0.0309,-3.03615 -0.0191,-3.03614 -0.0111,-3.03615 -0.006,-3.03614 -0.003,-3.03615 -0.002,-3.03614 -6.4e-4,-3.03615 -2e-5,-3.03614 5.7e-4,-3.03615 0.001,-3.03614 0.003,-3.03615 0.006,-3.03614 0.0112,-3.03615 0.0196,-3.03614 0.0327,-3.03615 0.052,-3.03614 0.0788,-3.03615 0.11379,-3.03614 0.15691,-3.03615 0.20687,-3.03614 0.26143,-3.03615 0.31772,-3.03614 0.37293,-3.03615 0.4251,-3.03614 0.47337,-3.03615 0.5178,-3.03614 0.55846,-3.03615 0.59418,-3.03614 0.62157,-3.03615 0.63503,-3.03614 0.62802,-3.03615 0.59572,-3.03614 0.53803,-3.03615 0.46193,-3.03614 0.38203,-3.03615 0.31869,-3.03614 0.29434,-3.03615 0.32885,-3.03614 0.43553,-3.03615 0.61878,-3.03614 0.87342,-3.03615 1.18522,-3.03614 1.5316,-3.03615 1.8822,-3.03614 2.19992,-3.03615 2.44351,-3.03614 2.57276,-3.03615 2.5567,-3.03614 2.38238,-3.03615 2.06213,-3.03614 1.63556,-3.03615 1.16489,-3.03614 0.72384,-3.03615 0.38319,-3.03614 0.19712,-3.03615 0.19434,-3.03614 0.37639,-3.03615 0.72298,-3.03614 1.20205,-3.03615 1.78072,-3.03614 2.43396,-3.03615 3.14839,-3.03614 3.92042,-3.03615 4.74955,-3.03614 5.62878,-3.03615 6.53462,-3.03614 7.41972,-3.03615 8.21066,-3.03614 8.81225,-3.03615 9.11853,-3.03614 9.0286,-3.03615 8.46402,-3.03614 7.38415,-3.03615 5.79628,-3.03614 3.7587,-3.03615 1.37703,-3.03614 -1.20579,-3.03615 -3.82332,-3.03614 -6.30229,-3.03615 -8.48002,-3.03614 -10.22117,-3.03615 -11.43155,-3.03614 -12.06736,-3.03615 -12.13752,-3.03614 -11.69916,-3.03614 -10.84664,-3.03615 -9.69664,-3.03614 -8.37228,-3.03615 z"
               style="fill:#0000ff;fill-opacity:1;fill-rule:nonzero;stroke:#000000;stroke-width:1.5;stroke-linecap:butt;stroke-linejoin:round;stroke-miterlimit:10;stroke-dasharray:none;stroke-opacity:1"
               id="path6836"
               inkscape:connector-curvature="0" />
          </g>
        </g>
        <g
           id="g6838">
          <g
             id="g6840"
             clip-path="url(#clipPath6842)">
            <path
               d="m 702.98713,117.18432 -199.97426,0 -23.63632,1.07376 -10.29655,1.07376 4.51987,1.07376 15.63016,1.07375 20.8707,1.07376 21.06791,1.07376 18.27608,1.07376 14.32297,1.07376 10.37382,1.07376 7.06085,1.07376 4.65194,1.07375 3.13473,1.07376 2.30283,1.07376 1.87785,1.07376 1.62112,1.07376 1.39036,1.07376 1.1314,1.07376 0.845,1.07375 0.57715,1.07376 0.40679,1.07376 0.38248,1.07376 0.45584,1.07376 0.50424,1.07376 0.43415,1.07376 0.26017,1.07375 0.0862,1.07376 0.0144,1.07376 0.065,1.07376 0.16789,1.07376 0.22599,1.07376 0.18895,1.07376 0.079,1.07375 -0.041,1.07376 -0.11699,1.07376 -0.13317,1.07376 -0.10537,1.07376 -0.0538,1.07376 0.0121,1.07376 0.082,1.07375 0.1327,1.07376 0.14628,1.07376 0.1292,1.07376 0.10204,1.07376 0.0751,1.07376 0.0457,1.07376 0.0155,1.07375 -0.003,1.07376 -0.006,1.07376 -0.009,1.07376 -0.0239,1.07376 -0.0358,1.07376 -0.0179,1.07376 0.0284,1.07375 0.0633,1.07376 0.0495,1.07376 -0.003,1.07376 -0.0422,1.07376 -0.0281,1.07376 0.0269,1.07376 0.0772,1.07376 0.0952,1.07375 0.0907,1.07376 0.0841,1.07376 0.0779,1.07376 0.0611,1.07376 0.032,1.07376 0.007,1.07376 0.002,1.07375 0.0185,1.07376 0.0383,1.07376 0.045,1.07376 0.0365,1.07376 0.0207,1.07376 0.004,1.07376 -0.0131,1.07375 -0.0344,1.07376 -0.0584,1.07376 -0.0748,1.07376 -0.0693,1.07376 -0.0359,1.07376 0.0142,1.07376 0.0575,1.07375 0.0758,1.07376 0.0677,1.07376 0.0457,1.07376 0.0236,1.07376 0.008,1.07376 -0.005,1.07376 -0.0176,1.07375 -0.0325,1.07376 -0.0434,1.07376 -0.0402,1.07376 -0.0197,1.07376 0.007,1.07376 0.0198,1.07376 0.0104,1.07375 -0.01,1.07376 -0.0198,1.07376 -0.007,1.07376 0.33374,0 0,0 -0.007,-1.07376 -0.0198,-1.07376 -0.01,-1.07376 0.0104,-1.07375 0.0198,-1.07376 0.007,-1.07376 -0.0197,-1.07376 -0.0402,-1.07376 -0.0434,-1.07376 -0.0325,-1.07376 -0.0176,-1.07375 -0.005,-1.07376 0.008,-1.07376 0.0236,-1.07376 0.0457,-1.07376 0.0677,-1.07376 0.0758,-1.07376 0.0575,-1.07375 0.0142,-1.07376 -0.0359,-1.07376 -0.0693,-1.07376 -0.0748,-1.07376 -0.0584,-1.07376 -0.0344,-1.07376 -0.0131,-1.07375 0.004,-1.07376 0.0207,-1.07376 0.0365,-1.07376 0.045,-1.07376 0.0383,-1.07376 0.0185,-1.07376 0.002,-1.07375 0.007,-1.07376 0.032,-1.07376 0.0611,-1.07376 0.0779,-1.07376 0.0841,-1.07376 0.0907,-1.07376 0.0952,-1.07375 0.0772,-1.07376 0.0269,-1.07376 -0.0281,-1.07376 -0.0422,-1.07376 -0.003,-1.07376 0.0495,-1.07376 0.0633,-1.07376 0.0284,-1.07375 -0.0179,-1.07376 -0.0358,-1.07376 -0.0239,-1.07376 -0.009,-1.07376 -0.006,-1.07376 -0.003,-1.07376 0.0155,-1.07375 0.0457,-1.07376 0.0751,-1.07376 0.10204,-1.07376 0.1292,-1.07376 0.14628,-1.07376 0.1327,-1.07376 0.082,-1.07375 0.0121,-1.07376 -0.0538,-1.07376 -0.10537,-1.07376 -0.13318,-1.07376 -0.11698,-1.07376 -0.041,-1.07376 0.079,-1.07375 0.18895,-1.07376 0.22599,-1.07376 0.16789,-1.07376 0.065,-1.07376 0.0144,-1.07376 0.0862,-1.07376 0.26017,-1.07375 0.43415,-1.07376 0.50424,-1.07376 0.45584,-1.07376 0.38248,-1.07376 0.40679,-1.07376 0.57715,-1.07376 0.845,-1.07375 1.1314,-1.07376 1.39037,-1.07376 1.62111,-1.07376 1.87786,-1.07376 2.30282,-1.07376 3.13472,-1.07376 4.65195,-1.07375 7.06085,-1.07376 10.37382,-1.07376 14.32297,-1.07376 18.27608,-1.07376 21.06791,-1.07376 20.8707,-1.07376 15.63016,-1.07375 4.51987,-1.07376 -10.29655,-1.07376 -23.63632,-1.07376 z"
               style="fill:#0000ff;fill-opacity:1;fill-rule:nonzero;stroke:#000000;stroke-width:1.5;stroke-linecap:butt;stroke-linejoin:round;stroke-miterlimit:10;stroke-dasharray:none;stroke-opacity:1"
               id="path6846"
               inkscape:connector-curvature="0" />
          </g>
        </g>
        <g
           id="g6848">
          <g
             id="g6850"
             clip-path="url(#clipPath6852)">
            <path
               d="m 1071.72,117.18432 -267.84,0 56.926,0.6387 44.71198,0.6387 18.08662,0.6387 7.39953,0.63871 2.65819,0.6387 1.12486,0.6387 1.33131,0.6387 0.76091,0.6387 0.28646,0.6387 -0.0206,0.6387 0.21948,0.6387 0.0949,0.6387 -0.034,0.63871 0.0501,0.6387 0.0708,0.6387 0.0526,0.6387 0.0169,0.6387 0.0971,0.6387 0.0605,0.6387 -0.0445,0.63871 -0.0302,0.6387 -0.0252,0.6387 -0.0126,0.6387 0.0661,0.6387 8.1e-4,0.6387 -0.053,0.6387 -0.0473,0.6387 0.0425,0.6387 0.0654,0.63871 0.0471,0.6387 -0.0306,0.6387 -0.0498,0.6387 -0.034,0.6387 0.0832,0.6387 0.0162,0.6387 -0.0459,0.6387 -0.024,0.63871 0.0436,0.6387 0.0452,0.6387 -0.0189,0.6387 -0.006,0.6387 -0.0108,0.6387 -0.0208,0.6387 0.0191,0.6387 0.0121,0.6387 0.005,0.63871 0.0214,0.6387 -0.0223,0.6387 -0.0386,0.6387 0,0.6387 0.0386,0.6387 0.0224,0.6387 -0.0182,0.6387 0.017,0.63871 0.0126,0.6387 -0.008,0.6387 -0.0439,0.6387 0.0102,0.6387 0.0381,0.6387 0.005,0.6387 8e-5,0.6387 0,0.63871 -1e-5,0.6387 -10e-4,0.6387 -0.0221,0.6387 -0.0426,0.6387 0.017,0.6387 0.0251,0.6387 0.021,0.6387 0.003,0.63871 -2.5e-4,0.6387 -0.008,0.6387 -0.022,0.6387 0.0142,0.6387 0.0147,0.6387 0.001,0.6387 10e-6,0.6387 0,0.63871 0,0.6387 0,0.6387 0,0.6387 0,0.6387 0,0.6387 0,0.6387 0,0.6387 0,0.63871 0,0.6387 0,0.6387 0,0.6387 0,0.6387 0,0.6387 0,0.6387 0,0.6387 0,0.63871 0,0.6387 0,0.6387 -6.2e-4,0.6387 -0.011,0.6387 -0.0193,0.6387 0.0618,0 0,0 -0.0193,-0.6387 -0.011,-0.6387 -6.2e-4,-0.6387 0,-0.6387 0,-0.6387 0,-0.63871 0,-0.6387 0,-0.6387 0,-0.6387 0,-0.6387 0,-0.6387 0,-0.6387 0,-0.6387 0,-0.63871 0,-0.6387 0,-0.6387 0,-0.6387 0,-0.6387 0,-0.6387 0,-0.6387 0,-0.6387 0,-0.63871 10e-6,-0.6387 10e-4,-0.6387 0.0147,-0.6387 0.0142,-0.6387 -0.022,-0.6387 -0.008,-0.6387 -2.5e-4,-0.6387 0.003,-0.63871 0.021,-0.6387 0.0251,-0.6387 0.017,-0.6387 -0.0426,-0.6387 -0.0221,-0.6387 -10e-4,-0.6387 -10e-6,-0.6387 0,-0.63871 8e-5,-0.6387 0.005,-0.6387 0.0381,-0.6387 0.0102,-0.6387 -0.0439,-0.6387 -0.008,-0.6387 0.0126,-0.6387 0.017,-0.63871 -0.0182,-0.6387 0.0224,-0.6387 0.0386,-0.6387 0,-0.6387 -0.0386,-0.6387 -0.0223,-0.6387 0.0214,-0.6387 0.005,-0.63871 0.0121,-0.6387 0.0191,-0.6387 -0.0208,-0.6387 -0.0108,-0.6387 -0.006,-0.6387 -0.0189,-0.6387 0.0452,-0.6387 0.0436,-0.6387 -0.024,-0.63871 -0.0459,-0.6387 0.0162,-0.6387 0.0832,-0.6387 -0.034,-0.6387 -0.0498,-0.6387 -0.0306,-0.6387 0.0471,-0.6387 0.0654,-0.63871 0.0425,-0.6387 -0.0473,-0.6387 -0.053,-0.6387 8.1e-4,-0.6387 0.066,-0.6387 -0.0126,-0.6387 -0.0252,-0.6387 -0.0302,-0.6387 -0.0445,-0.63871 0.0605,-0.6387 0.0971,-0.6387 0.0169,-0.6387 0.0526,-0.6387 0.0708,-0.6387 0.0501,-0.6387 -0.034,-0.63871 0.0949,-0.6387 0.21948,-0.6387 -0.0207,-0.6387 0.28646,-0.6387 0.76091,-0.6387 1.33131,-0.6387 1.12486,-0.6387 2.65819,-0.6387 7.39953,-0.63871 18.08662,-0.6387 44.71196,-0.6387 56.926,-0.6387 z"
               style="fill:#0000ff;fill-opacity:1;fill-rule:nonzero;stroke:#000000;stroke-width:1.5;stroke-linecap:butt;stroke-linejoin:round;stroke-miterlimit:10;stroke-dasharray:none;stroke-opacity:1"
               id="path6856"
               inkscape:connector-curvature="0" />
          </g>
        </g>
        <g
           id="g6858">
          <g
             id="g6860"
             clip-path="url(#clipPath6862)">
            <path
               d="m 1406.52,117.18432 -267.84,0 133.7368,0.34249 -0.1824,0.34249 -3.3432,0.3425 3.7087,0.34249 -0.4487,0.34249 0.3856,0.34249 0.063,0.34249 -0.3077,0.3425 0.3074,0.34249 0,0.34249 -0.051,0.34249 0.055,0.34249 -0.014,0.3425 0.011,0.34249 0,0.34249 -0.069,0.34249 0.069,0.34249 0,0.3425 -0.029,0.34249 0.03,0.34249 0,0.34249 0,0.34249 0,0.3425 -0.047,0.34249 0.047,0.34249 -4e-4,0.34249 -0.018,0.34249 0.019,0.3425 0,0.34249 0,0.34249 8e-4,0.34249 -0.013,0.34249 0.013,0.34249 -1e-4,0.3425 -0.01,0.34249 0.01,0.34249 -0.01,0.34249 0,0.34249 0,0.3425 -0.01,0.34249 0.01,0.34249 0,0.34249 -0.01,0.34249 0.01,0.3425 0,0.34249 5e-4,0.34249 0,0.34249 0,0.34249 0,0.3425 0,0.34249 0,0.34249 0,0.34249 0,0.34249 0,0.3425 0,0.34249 0,0.34249 0,0.34249 0,0.34249 0,0.3425 0,0.34249 0,0.34249 0,0.34249 0,0.34249 0,0.3425 0,0.34249 0,0.34249 -0.01,0.34249 0.01,0.34249 0,0.3425 0,0.34249 0,0.34249 0,0.34249 0,0.34249 2e-4,0.34249 -0.01,0.3425 0.01,0.34249 0,0.34249 0,0.34249 0,0.34249 0,0.3425 0,0.34249 0,0.34249 0,0.34249 0,0.34249 0,0.3425 0,0.34249 0,0.34249 0,0.34249 0,0.34249 0,0.3425 0,0.34249 0,0.34249 0,0.34249 0,0.34249 0,0.3425 0,0.34249 0,0.34249 0,0.34249 -0.01,0.34249 0.014,0 0,0 -0.01,-0.34249 0,-0.34249 0,-0.34249 0,-0.34249 0,-0.3425 0,-0.34249 0,-0.34249 0,-0.34249 0,-0.34249 0,-0.3425 0,-0.34249 0,-0.34249 0,-0.34249 0,-0.34249 0,-0.3425 0,-0.34249 0,-0.34249 0,-0.34249 0,-0.34249 0,-0.3425 0,-0.34249 0,-0.34249 0,-0.34249 0.01,-0.34249 -0.01,-0.3425 2e-4,-0.34249 0,-0.34249 0,-0.34249 0,-0.34249 0,-0.34249 0,-0.3425 0.01,-0.34249 -0.01,-0.34249 0,-0.34249 0,-0.34249 0,-0.3425 0,-0.34249 0,-0.34249 0,-0.34249 0,-0.34249 0,-0.3425 0,-0.34249 0,-0.34249 0,-0.34249 0,-0.34249 0,-0.3425 0,-0.34249 0,-0.34249 0,-0.34249 0,-0.34249 0,-0.3425 0,-0.34249 0,-0.34249 5e-4,-0.34249 0,-0.34249 0.01,-0.3425 -0.01,-0.34249 0,-0.34249 0.01,-0.34249 -0.01,-0.34249 0,-0.3425 0,-0.34249 -0.01,-0.34249 0.01,-0.34249 -0.01,-0.34249 -10e-5,-0.3425 0.013,-0.34249 -0.013,-0.34249 8e-4,-0.34249 0,-0.34249 0,-0.34249 0.019,-0.3425 -0.018,-0.34249 -4e-4,-0.34249 0.047,-0.34249 -0.047,-0.34249 0,-0.3425 0,-0.34249 0,-0.34249 0.03,-0.34249 -0.029,-0.34249 0,-0.3425 0.069,-0.34249 -0.069,-0.34249 0,-0.34249 0.011,-0.34249 -0.014,-0.3425 0.055,-0.34249 -0.051,-0.34249 0,-0.34249 0.3074,-0.34249 -0.3077,-0.3425 0.063,-0.34249 0.3856,-0.34249 -0.4487,-0.34249 3.7087,-0.34249 -3.3432,-0.3425 -0.1824,-0.34249 133.7368,-0.34249 z"
               style="fill:#0000ff;fill-opacity:1;fill-rule:nonzero;stroke:#000000;stroke-width:1.5;stroke-linecap:butt;stroke-linejoin:round;stroke-miterlimit:10;stroke-dasharray:none;stroke-opacity:1"
               id="path6866"
               inkscape:connector-curvature="0" />
          </g>
        </g>
        <g
           id="g6868">
          <text
             transform="matrix(1,0,0,-1,255.47344,63.271199)"
             style="font-variant:normal;font-weight:normal;font-size:40px;font-family:BitstreamVeraSans;-inkscape-font-specification:BitstreamVeraSans-Roman;writing-mode:lr-tb;fill:#000000;fill-opacity:1;fill-rule:nonzero;stroke:none"
             id="text6870">
            <tspan
               x="0"
               y="0"
               id="tspan6872">2</tspan>
          </text>
          <text
             transform="matrix(1,0,0,-1,590.27344,63.271199)"
             style="font-variant:normal;font-weight:normal;font-size:40px;font-family:BitstreamVeraSans;-inkscape-font-specification:BitstreamVeraSans-Roman;writing-mode:lr-tb;fill:#000000;fill-opacity:1;fill-rule:nonzero;stroke:none"
             id="text6874">
            <tspan
               x="0"
               y="0"
               id="tspan6876">3</tspan>
          </text>
          <text
             transform="matrix(1,0,0,-1,925.07344,63.271199)"
             style="font-variant:normal;font-weight:normal;font-size:40px;font-family:BitstreamVeraSans;-inkscape-font-specification:BitstreamVeraSans-Roman;writing-mode:lr-tb;fill:#000000;fill-opacity:1;fill-rule:nonzero;stroke:none"
             id="text6878">
            <tspan
               x="0"
               y="0"
               id="tspan6880">4</tspan>
          </text>
          <text
             transform="matrix(1,0,0,-1,1259.8734,63.271199)"
             style="font-variant:normal;font-weight:normal;font-size:40px;font-family:BitstreamVeraSans;-inkscape-font-specification:BitstreamVeraSans-Roman;writing-mode:lr-tb;fill:#000000;fill-opacity:1;fill-rule:nonzero;stroke:none"
             id="text6882">
            <tspan
               x="0"
               y="0"
               id="tspan6884">5</tspan>
          </text>
          <text
             transform="matrix(1,0,0,-1,535.30625,-3.041301)"
             style="font-variant:normal;font-weight:normal;font-size:50px;font-family:BitstreamVeraSans;-inkscape-font-specification:BitstreamVeraSans-Roman;writing-mode:lr-tb;fill:#000000;fill-opacity:1;fill-rule:nonzero;stroke:none"
             id="text6886">
            <tspan
               x="0 34.900002 65.550003 97.25 124.75 155.5 176.05 202.10001 218 245.5 276.10001 324.79999 356.54999 387.20001 407.75 438.5"
               y="0"
               sodipodi:role="line"
               id="tspan6888">Cancers compared</tspan>
          </text>
          <text
             transform="matrix(1,0,0,-1,77.70625,108.90307)"
             style="font-variant:normal;font-weight:normal;font-size:30px;font-family:BitstreamVeraSans;-inkscape-font-specification:BitstreamVeraSans-Roman;writing-mode:lr-tb;fill:#000000;fill-opacity:1;fill-rule:nonzero;stroke:none"
             id="text6890">
            <tspan
               x="0"
               y="0"
               id="tspan6892">0</tspan>
          </text>
          <text
             transform="matrix(1,0,0,-1,58.6125,194.12803)"
             style="font-variant:normal;font-weight:normal;font-size:30px;font-family:BitstreamVeraSans;-inkscape-font-specification:BitstreamVeraSans-Roman;writing-mode:lr-tb;fill:#000000;fill-opacity:1;fill-rule:nonzero;stroke:none"
             id="text6894">
            <tspan
               x="0 19.08"
               y="0"
               sodipodi:role="line"
               id="tspan6896">10</tspan>
          </text>
          <text
             transform="matrix(1,0,0,-1,58.6125,279.35299)"
             style="font-variant:normal;font-weight:normal;font-size:30px;font-family:BitstreamVeraSans;-inkscape-font-specification:BitstreamVeraSans-Roman;writing-mode:lr-tb;fill:#000000;fill-opacity:1;fill-rule:nonzero;stroke:none"
             id="text6898">
            <tspan
               x="0 19.08"
               y="0"
               sodipodi:role="line"
               id="tspan6900">20</tspan>
          </text>
          <text
             transform="matrix(1,0,0,-1,58.6125,364.57795)"
             style="font-variant:normal;font-weight:normal;font-size:30px;font-family:BitstreamVeraSans;-inkscape-font-specification:BitstreamVeraSans-Roman;writing-mode:lr-tb;fill:#000000;fill-opacity:1;fill-rule:nonzero;stroke:none"
             id="text6902">
            <tspan
               x="0 19.08"
               y="0"
               sodipodi:role="line"
               id="tspan6904">30</tspan>
          </text>
          <text
             transform="matrix(1,0,0,-1,58.6125,449.80291)"
             style="font-variant:normal;font-weight:normal;font-size:30px;font-family:BitstreamVeraSans;-inkscape-font-specification:BitstreamVeraSans-Roman;writing-mode:lr-tb;fill:#000000;fill-opacity:1;fill-rule:nonzero;stroke:none"
             id="text6906">
            <tspan
               x="0 19.08"
               y="0"
               sodipodi:role="line"
               id="tspan6908">40</tspan>
          </text>
          <text
             transform="matrix(1,0,0,-1,58.6125,535.02787)"
             style="font-variant:normal;font-weight:normal;font-size:30px;font-family:BitstreamVeraSans;-inkscape-font-specification:BitstreamVeraSans-Roman;writing-mode:lr-tb;fill:#000000;fill-opacity:1;fill-rule:nonzero;stroke:none"
             id="text6910">
            <tspan
               x="0 19.08"
               y="0"
               sodipodi:role="line"
               id="tspan6912">50</tspan>
          </text>
          <text
             transform="matrix(0,1,1,0,28.20625,102.10266)"
             style="font-variant:normal;font-weight:normal;font-size:50px;font-family:BitstreamVeraSans;-inkscape-font-specification:BitstreamVeraSans-Roman;writing-mode:lr-tb;fill:#000000;fill-opacity:1;fill-rule:nonzero;stroke:none"
             id="text6914">
            <tspan
               x="0 38.75 69.5 101.2 131.95 158 173.89999 199.95 231.64999 262.29999 282.85001 313.60001 345.35001 361.25 380.75 428.25"
               y="0"
               sodipodi:role="line"
               id="tspan6916">Genes shared (%)</tspan>
          </text>
          <text
             transform="matrix(1,0,0,-1,661.72812,504.84439)"
             style="font-variant:normal;font-weight:normal;font-size:60px;font-family:BitstreamVeraSans;-inkscape-font-specification:BitstreamVeraSans-Roman;writing-mode:lr-tb;fill:#000000;fill-opacity:1;fill-rule:nonzero;stroke:none"
             id="text6918">
            <tspan
               x="0 58.439999 100.14 145.02 186.06"
               y="0"
               sodipodi:role="line"
               id="tspan6920">mRNAs</tspan>
          </text>
        </g>
      </g>
    </g>
  </g>
</svg>
